  0
SECTION
  2
HEADER
  9
$ANGBASE
  50
0.0
  9
$ANGDIR
  70
1
  9
$MEASUREMENT
  70
1
  0
ENDSEC
  0
SECTION
  2
TABLES
  0
TABLE
  2
LTYPE
  70
4
  0
LTYPE
  5
40F
  2
CONTINUOUS
  70
0
  3
Solid line
  72
65
  73
0
  40
0.0
  0
LTYPE
  5
410
  2
DASHDOT
 70
0
  3
Dash Dot ____ _ ____ _
 72
65
 73
4
 40
2.0
 49
1.25
 49
-0.25
 49
0.25
 49
-0.25
  0
LTYPE
  5
411
  2
DASHED
 70
0
  3
Dashed __ __ __ __ __
 72
65
 73
2
 40
0.75
 49
0.5
 49
-0.25
  0
LTYPE
  5
43B
  2
DOTTED
 70
0
  3
Dotted .  .  .  .
 72
65
 73
2
 40
0.2
 49
0.0
 49
-0.2
  0
ENDTAB
  0
TABLE
  2
STYLE
  70
4
  0
STYLE
  2
KICAD
  70
0
  40
0
  41
1
  42
1
  50
0
  71
0
  3
isocp.shx
  0
STYLE
  2
KICADB
  70
0
  40
0
  41
1
  42
1
  50
0
  71
0
  3
isocp.shx
  0
STYLE
  2
KICADI
  70
0
  40
0
  41
1
  42
1
  50
15
  71
0
  3
isocp.shx
  0
STYLE
  2
KICADBI
  70
0
  40
0
  41
1
  42
1
  50
15
  71
0
  3
isocp.shx
  0
ENDTAB
  0
TABLE
  2
LAYER
  70
35
  0
LAYER
  2
BLACK
  70
0
  62
7
  6
CONTINUOUS
  0
LAYER
  2
GRAY1
  70
0
  62
251
  6
CONTINUOUS
  0
LAYER
  2
GRAY2
  70
0
  62
8
  6
CONTINUOUS
  0
LAYER
  2
GRAY3
  70
0
  62
9
  6
CONTINUOUS
  0
LAYER
  2
WHITE
  70
0
  62
7
  6
CONTINUOUS
  0
LAYER
  2
LYELLOW
  70
0
  62
51
  6
CONTINUOUS
  0
LAYER
  2
LORANGE
  70
0
  62
41
  6
CONTINUOUS
  0
LAYER
  2
BLUE1
  70
0
  62
178
  6
CONTINUOUS
  0
LAYER
  2
GREEN1
  70
0
  62
98
  6
CONTINUOUS
  0
LAYER
  2
CYAN1
  70
0
  62
138
  6
CONTINUOUS
  0
LAYER
  2
RED1
  70
0
  62
18
  6
CONTINUOUS
  0
LAYER
  2
MAGENTA1
  70
0
  62
228
  6
CONTINUOUS
  0
LAYER
  2
BROWN1
  70
0
  62
58
  6
CONTINUOUS
  0
LAYER
  2
ORANGE1
  70
0
  62
34
  6
CONTINUOUS
  0
LAYER
  2
BLUE2
  70
0
  62
5
  6
CONTINUOUS
  0
LAYER
  2
GREEN2
  70
0
  62
3
  6
CONTINUOUS
  0
LAYER
  2
CYAN2
  70
0
  62
4
  6
CONTINUOUS
  0
LAYER
  2
RED2
  70
0
  62
1
  6
CONTINUOUS
  0
LAYER
  2
MAGENTA2
  70
0
  62
6
  6
CONTINUOUS
  0
LAYER
  2
BROWN2
  70
0
  62
54
  6
CONTINUOUS
  0
LAYER
  2
ORANGE2
  70
0
  62
42
  6
CONTINUOUS
  0
LAYER
  2
BLUE3
  70
0
  62
171
  6
CONTINUOUS
  0
LAYER
  2
GREEN3
  70
0
  62
91
  6
CONTINUOUS
  0
LAYER
  2
CYAN3
  70
0
  62
131
  6
CONTINUOUS
  0
LAYER
  2
RED3
  70
0
  62
11
  6
CONTINUOUS
  0
LAYER
  2
MAGENTA3
  70
0
  62
221
  6
CONTINUOUS
  0
LAYER
  2
YELLOW3
  70
0
  62
2
  6
CONTINUOUS
  0
LAYER
  2
ORANGE3
  70
0
  62
32
  6
CONTINUOUS
  0
LAYER
  2
BLUE4
  70
0
  62
5
  6
CONTINUOUS
  0
LAYER
  2
GREEN4
  70
0
  62
3
  6
CONTINUOUS
  0
LAYER
  2
CYAN4
  70
0
  62
4
  6
CONTINUOUS
  0
LAYER
  2
RED4
  70
0
  62
1
  6
CONTINUOUS
  0
LAYER
  2
MAGENTA4
  70
0
  62
6
  6
CONTINUOUS
  0
LAYER
  2
YELLOW4
  70
0
  62
2
  6
CONTINUOUS
  0
LAYER
  2
ORANGE4
  70
0
  62
40
  6
CONTINUOUS
  0
ENDTAB
  0
ENDSEC
  0
SECTION
  2
ENTITIES
0
LINE
8
WHITE
6
CONTINUOUS
10
182.6300999999999988
20
-167.6177999999999884
11
248.1100999999999885
21
-153.7000709999999799
0
LINE
8
WHITE
6
CONTINUOUS
10
168.6000999999999976
20
-167.6177999999999884
11
182.6300999999999988
21
-167.6177999999999884
0
LINE
8
WHITE
6
CONTINUOUS
10
103.1267999999999887
20
-153.7000709999999799
11
168.6000999999999976
21
-167.6177999999999884
0
LINE
8
WHITE
6
CONTINUOUS
10
27.4125999999999976
20
-24.4250769999999982
11
347.50004899999999
21
-24.4250769999999982
0
ARC
8
WHITE
10
27.4125999999999976
20
-26.4250799999999977
40
2.0000000000022502
50
90.00000000
51
179.99991406
0
LINE
8
WHITE
6
CONTINUOUS
10
349.50004899999999
20
-26.4250769999999982
11
349.50004899999999
21
-151.7000709999999799
0
LINE
8
WHITE
6
CONTINUOUS
10
25.4125999999999976
20
-26.4250769999999982
11
25.4125999999999976
21
-151.7000709999999799
0
LINE
8
WHITE
6
CONTINUOUS
10
27.4125999999999976
20
-153.7000709999999799
11
103.1267999999999887
21
-153.7000709999999799
0
LINE
8
WHITE
6
CONTINUOUS
10
248.1100999999999885
20
-153.7000709999999799
11
347.50004899999999
21
-153.7000709999999799
0
ARC
8
WHITE
10
27.4125999999999976
20
-151.700099999999992
40
1.9999709999999999
50
-180.00083079
51
-90.00000000
0
ARC
8
WHITE
10
347.5000999999999749
20
-26.4249999999999972
40
1.9999230006502748
50
-0.00220594
51
90.00146110
0
ARC
8
WHITE
10
347.5
20
-151.6999999999999886
40
2.0000490012602192
50
-89.99859630
51
-0.00203395
0
CIRCLE
8
WHITE
10
55.3999999999999986
20
-133.6699999999999875
40
3.1999999999999997
0
CIRCLE
8
WHITE
10
229.1927849999999864
20
-27.9325089999999996
40
3.1999999999999997
0
CIRCLE
8
WHITE
10
240.664999999999992
20
-144.525999999999982
40
3.1999999999999997
0
CIRCLE
8
WHITE
10
328.2224999999999682
20
-131.7647000000000048
40
3.1999999999999997
0
CIRCLE
8
WHITE
10
56.8960000000000008
20
-72.6439999999999912
40
3.1999999999999997
0
CIRCLE
8
WHITE
10
111.7599999999999909
20
-145.0339999999999918
40
3.1999999999999997
0
LINE
8
WHITE
6
CONTINUOUS
10
71.4749999999999943
20
-113.2058999999999997
11
85.5249999999999915
21
-113.2058999999999997
0
LINE
8
WHITE
6
CONTINUOUS
10
85.5249999999999915
20
-113.2058999999999997
11
85.5249999999999915
21
-127.2558999999999969
0
LINE
8
WHITE
6
CONTINUOUS
10
85.5249999999999915
20
-127.2558999999999969
11
71.4749999999999943
21
-127.2558999999999969
0
LINE
8
WHITE
6
CONTINUOUS
10
71.4749999999999943
20
-127.2558999999999969
11
71.4749999999999943
21
-113.2058999999999997
0
LINE
8
WHITE
6
CONTINUOUS
10
30.4018999999999977
20
-32.2687999999999988
11
44.4518999999999949
21
-32.2687999999999988
0
LINE
8
WHITE
6
CONTINUOUS
10
44.4518999999999949
20
-32.2687999999999988
11
44.4518999999999949
21
-46.318799999999996
0
LINE
8
WHITE
6
CONTINUOUS
10
44.4518999999999949
20
-46.318799999999996
11
30.4018999999999977
21
-46.318799999999996
0
LINE
8
WHITE
6
CONTINUOUS
10
30.4018999999999977
20
-46.318799999999996
11
30.4018999999999977
21
-32.2687999999999988
0
LINE
8
WHITE
6
CONTINUOUS
10
40.3586999999999989
20
-56.0685999999999964
11
54.4086999999999961
21
-56.0685999999999964
0
LINE
8
WHITE
6
CONTINUOUS
10
54.4086999999999961
20
-56.0685999999999964
11
54.4086999999999961
21
-70.1186000000000007
0
LINE
8
WHITE
6
CONTINUOUS
10
54.4086999999999961
20
-70.1186000000000007
11
40.3586999999999989
21
-70.1186000000000007
0
LINE
8
WHITE
6
CONTINUOUS
10
40.3586999999999989
20
-70.1186000000000007
11
40.3586999999999989
21
-56.0685999999999964
0
LINE
8
WHITE
6
CONTINUOUS
10
54.3414000000000001
20
-30.7575000000000003
11
68.3913999999999902
21
-30.7575000000000003
0
LINE
8
WHITE
6
CONTINUOUS
10
68.3913999999999902
20
-30.7575000000000003
11
68.3913999999999902
21
-44.8074999999999974
0
LINE
8
WHITE
6
CONTINUOUS
10
68.3913999999999902
20
-44.8074999999999974
11
54.3414000000000001
21
-44.8074999999999974
0
LINE
8
WHITE
6
CONTINUOUS
10
54.3414000000000001
20
-44.8074999999999974
11
54.3414000000000001
21
-30.7575000000000003
0
LINE
8
WHITE
6
CONTINUOUS
10
59.4133679999999984
20
-56.0685999999999964
11
73.4633680000000027
21
-56.0685999999999964
0
LINE
8
WHITE
6
CONTINUOUS
10
73.4633680000000027
20
-56.0685999999999964
11
73.4633680000000027
21
-70.1186000000000007
0
LINE
8
WHITE
6
CONTINUOUS
10
73.4633680000000027
20
-70.1186000000000007
11
59.4133679999999984
21
-70.1186000000000007
0
LINE
8
WHITE
6
CONTINUOUS
10
59.4133679999999984
20
-70.1186000000000007
11
59.4133679999999984
21
-56.0685999999999964
0
LINE
8
WHITE
6
CONTINUOUS
10
64.768100000000004
20
-75.1186000000000007
11
78.8181000000000012
21
-75.1186000000000007
0
LINE
8
WHITE
6
CONTINUOUS
10
78.8181000000000012
20
-75.1186000000000007
11
78.8181000000000012
21
-89.1685999999999979
0
LINE
8
WHITE
6
CONTINUOUS
10
78.8181000000000012
20
-89.1685999999999979
11
64.768100000000004
21
-89.1685999999999979
0
LINE
8
WHITE
6
CONTINUOUS
10
64.768100000000004
20
-89.1685999999999979
11
64.768100000000004
21
-75.1186000000000007
0
LINE
8
WHITE
6
CONTINUOUS
10
65.4411999999999949
20
-94.1685999999999979
11
79.4911999999999921
21
-94.1685999999999979
0
LINE
8
WHITE
6
CONTINUOUS
10
79.4911999999999921
20
-94.1685999999999979
11
79.4911999999999921
21
-108.218599999999995
0
LINE
8
WHITE
6
CONTINUOUS
10
79.4911999999999921
20
-108.218599999999995
11
65.4411999999999949
21
-108.218599999999995
0
LINE
8
WHITE
6
CONTINUOUS
10
65.4411999999999949
20
-108.218599999999995
11
65.4411999999999949
21
-94.1685999999999979
0
LINE
8
WHITE
6
CONTINUOUS
10
73.4040999999999997
20
-30.7447999999999979
11
87.4540999999999968
21
-30.7447999999999979
0
LINE
8
WHITE
6
CONTINUOUS
10
87.4540999999999968
20
-30.7447999999999979
11
87.4540999999999968
21
-44.7947999999999951
0
LINE
8
WHITE
6
CONTINUOUS
10
87.4540999999999968
20
-44.7947999999999951
11
73.4040999999999997
21
-44.7947999999999951
0
LINE
8
WHITE
6
CONTINUOUS
10
73.4040999999999997
20
-44.7947999999999951
11
73.4040999999999997
21
-30.7447999999999979
0
LINE
8
WHITE
6
CONTINUOUS
10
78.4586999999999932
20
-54.5826999999999956
11
92.5086999999999904
21
-54.5826999999999956
0
LINE
8
WHITE
6
CONTINUOUS
10
92.5086999999999904
20
-54.5826999999999956
11
92.5086999999999904
21
-68.6326999999999998
0
LINE
8
WHITE
6
CONTINUOUS
10
92.5086999999999904
20
-68.6326999999999998
11
78.4586999999999932
21
-68.6326999999999998
0
LINE
8
WHITE
6
CONTINUOUS
10
78.4586999999999932
20
-68.6326999999999998
11
78.4586999999999932
21
-54.5826999999999956
0
LINE
8
WHITE
6
CONTINUOUS
10
100.6229680000000002
20
-77.0628930000000025
11
97.7018070000000023
21
-90.8058679999999896
0
LINE
8
WHITE
6
CONTINUOUS
10
97.7018070000000023
20
-90.8058679999999896
11
83.958832000000001
21
-87.8847069999999917
0
LINE
8
WHITE
6
CONTINUOUS
10
83.958832000000001
20
-87.8847069999999917
11
86.8799929999999989
21
-74.1417319999999904
0
LINE
8
WHITE
6
CONTINUOUS
10
86.8799929999999989
20
-74.1417319999999904
11
100.6229680000000002
21
-77.0628930000000025
0
LINE
8
WHITE
6
CONTINUOUS
10
101.3214679999999959
20
-96.6970929999999953
11
98.400306999999998
21
-110.4400679999999966
0
LINE
8
WHITE
6
CONTINUOUS
10
98.400306999999998
20
-110.4400679999999966
11
84.6573319999999967
21
-107.5189069999999987
0
LINE
8
WHITE
6
CONTINUOUS
10
84.6573319999999967
20
-107.5189069999999987
11
87.5784929999999946
21
-93.7759319999999974
0
LINE
8
WHITE
6
CONTINUOUS
10
87.5784929999999946
20
-93.7759319999999974
11
101.3214679999999959
21
-96.6970929999999953
0
LINE
8
WHITE
6
CONTINUOUS
10
109.5637679999999961
20
-35.1401929999999965
11
106.6426069999999982
21
-48.8831679999999977
0
LINE
8
WHITE
6
CONTINUOUS
10
106.6426069999999982
20
-48.8831679999999977
11
92.8996319999999969
21
-45.9620069999999998
0
LINE
8
WHITE
6
CONTINUOUS
10
92.8996319999999969
20
-45.9620069999999998
11
95.8207929999999948
21
-32.2190319999999986
0
LINE
8
WHITE
6
CONTINUOUS
10
95.8207929999999948
20
-32.2190319999999986
11
109.5637679999999961
21
-35.1401929999999965
0
LINE
8
WHITE
6
CONTINUOUS
10
113.9071679999999986
20
-60.4004929999999973
11
110.9860070000000007
21
-74.1434679999999986
0
LINE
8
WHITE
6
CONTINUOUS
10
110.9860070000000007
20
-74.1434679999999986
11
97.2430319999999995
21
-71.2223070000000007
0
LINE
8
WHITE
6
CONTINUOUS
10
97.2430319999999995
20
-71.2223070000000007
11
100.1641929999999974
21
-57.4793319999999994
0
LINE
8
WHITE
6
CONTINUOUS
10
100.1641929999999974
20
-57.4793319999999994
11
113.9071679999999986
21
-60.4004929999999973
0
LINE
8
WHITE
6
CONTINUOUS
10
119.2538679999999971
20
-81.0252929999999907
11
116.3327069999999992
21
-94.768267999999992
0
LINE
8
WHITE
6
CONTINUOUS
10
116.3327069999999992
20
-94.768267999999992
11
102.5897319999999979
21
-91.8471069999999941
0
LINE
8
WHITE
6
CONTINUOUS
10
102.5897319999999979
20
-91.8471069999999941
11
105.5108929999999958
21
-78.1041319999999928
0
LINE
8
WHITE
6
CONTINUOUS
10
105.5108929999999958
20
-78.1041319999999928
11
119.2538679999999971
21
-81.0252929999999907
0
LINE
8
WHITE
6
CONTINUOUS
10
119.9523679999999928
20
-100.6594929999999977
11
117.0312069999999949
21
-114.4024679999999989
0
LINE
8
WHITE
6
CONTINUOUS
10
117.0312069999999949
20
-114.4024679999999989
11
103.2882319999999936
21
-111.481307000000001
0
LINE
8
WHITE
6
CONTINUOUS
10
103.2882319999999936
20
-111.481307000000001
11
106.2093929999999915
21
-97.7383319999999998
0
LINE
8
WHITE
6
CONTINUOUS
10
106.2093929999999915
20
-97.7383319999999998
11
119.9523679999999928
21
-100.6594929999999977
0
LINE
8
WHITE
6
CONTINUOUS
10
132.5380679999999813
20
-64.375592999999995
11
129.6169069999999977
21
-78.1185679999999962
0
LINE
8
WHITE
6
CONTINUOUS
10
129.6169069999999977
20
-78.1185679999999962
11
115.8739319999999964
21
-75.1974069999999983
0
LINE
8
WHITE
6
CONTINUOUS
10
115.8739319999999964
20
-75.1974069999999983
11
118.7950929999999943
21
-61.4544319999999971
0
LINE
8
WHITE
6
CONTINUOUS
10
118.7950929999999943
20
-61.4544319999999971
11
132.5380679999999813
21
-64.375592999999995
0
LINE
8
WHITE
6
CONTINUOUS
10
137.8720679999999845
20
-85.0003930000000025
11
134.9509070000000008
21
-98.7433679999999896
0
LINE
8
WHITE
6
CONTINUOUS
10
134.9509070000000008
20
-98.7433679999999896
11
121.2079319999999996
21
-95.8222069999999917
0
LINE
8
WHITE
6
CONTINUOUS
10
121.2079319999999996
20
-95.8222069999999917
11
124.1290929999999975
21
-82.0792319999999904
0
LINE
8
WHITE
6
CONTINUOUS
10
124.1290929999999975
20
-82.0792319999999904
11
137.8720679999999845
21
-85.0003930000000025
0
LINE
8
WHITE
6
CONTINUOUS
10
138.5451679999999897
20
-104.583793
11
135.624007000000006
21
-118.3267680000000013
0
LINE
8
WHITE
6
CONTINUOUS
10
135.624007000000006
20
-118.3267680000000013
11
121.8810319999999905
21
-115.4056069999999892
0
LINE
8
WHITE
6
CONTINUOUS
10
121.8810319999999905
20
-115.4056069999999892
11
124.8021929999999884
21
-101.6626320000000021
0
LINE
8
WHITE
6
CONTINUOUS
10
124.8021929999999884
20
-101.6626320000000021
11
138.5451679999999897
21
-104.583793
0
LINE
8
WHITE
6
CONTINUOUS
10
144.7938680000000033
20
-125.4011929999999921
11
141.8727069999999912
21
-139.1441680000000076
0
LINE
8
WHITE
6
CONTINUOUS
10
141.8727069999999912
20
-139.1441680000000076
11
128.12973199999999
21
-136.2230069999999955
0
LINE
8
WHITE
6
CONTINUOUS
10
128.12973199999999
20
-136.2230069999999955
11
131.0508930000000021
21
-122.4800319999999942
0
LINE
8
WHITE
6
CONTINUOUS
10
131.0508930000000021
20
-122.4800319999999942
11
144.7938680000000033
21
-125.4011929999999921
0
LINE
8
WHITE
6
CONTINUOUS
10
151.4483679999999879
20
-44.0555929999999947
11
148.5272070000000042
21
-57.7985679999999959
0
LINE
8
WHITE
6
CONTINUOUS
10
148.5272070000000042
20
-57.7985679999999959
11
134.7842320000000029
21
-54.877406999999998
0
LINE
8
WHITE
6
CONTINUOUS
10
134.7842320000000029
20
-54.877406999999998
11
137.7053929999999866
21
-41.1344319999999968
0
LINE
8
WHITE
6
CONTINUOUS
10
137.7053929999999866
20
-41.1344319999999968
11
151.4483679999999879
21
-44.0555929999999947
0
LINE
8
WHITE
6
CONTINUOUS
10
151.1816680000000019
20
-68.3379929999999973
11
148.2605069999999898
21
-82.0809679999999986
0
LINE
8
WHITE
6
CONTINUOUS
10
148.2605069999999898
20
-82.0809679999999986
11
134.5175319999999886
21
-79.1598070000000007
0
LINE
8
WHITE
6
CONTINUOUS
10
134.5175319999999886
20
-79.1598070000000007
11
137.4386930000000007
21
-65.4168319999999994
0
LINE
8
WHITE
6
CONTINUOUS
10
137.4386930000000007
20
-65.4168319999999994
11
151.1816680000000019
21
-68.3379929999999973
0
LINE
8
WHITE
6
CONTINUOUS
10
156.5156680000000051
20
-88.9119929999999954
11
153.594506999999993
21
-102.6549679999999967
0
LINE
8
WHITE
6
CONTINUOUS
10
153.594506999999993
20
-102.6549679999999967
11
139.8515319999999917
21
-99.7338069999999988
0
LINE
8
WHITE
6
CONTINUOUS
10
139.8515319999999917
20
-99.7338069999999988
11
142.7726930000000038
21
-85.9908319999999975
0
LINE
8
WHITE
6
CONTINUOUS
10
142.7726930000000038
20
-85.9908319999999975
11
156.5156680000000051
21
-88.9119929999999954
0
LINE
8
WHITE
6
CONTINUOUS
10
157.1887679999999818
20
-108.5461929999999882
11
154.2676069999999982
21
-122.2891679999999894
0
LINE
8
WHITE
6
CONTINUOUS
10
154.2676069999999982
20
-122.2891679999999894
11
140.5246319999999969
21
-119.3680069999999915
0
LINE
8
WHITE
6
CONTINUOUS
10
140.5246319999999969
20
-119.3680069999999915
11
143.4457929999999806
21
-105.6250319999999903
0
LINE
8
WHITE
6
CONTINUOUS
10
143.4457929999999806
20
-105.6250319999999903
11
157.1887679999999818
21
-108.5461929999999882
0
LINE
8
WHITE
6
CONTINUOUS
10
163.4247680000000003
20
-129.350892999999985
11
160.5036069999999881
21
-143.0938679999999863
0
LINE
8
WHITE
6
CONTINUOUS
10
160.5036069999999881
20
-143.0938679999999863
11
146.7606319999999869
21
-140.1727070000000026
0
LINE
8
WHITE
6
CONTINUOUS
10
146.7606319999999869
20
-140.1727070000000026
11
149.681792999999999
21
-126.4297320000000013
0
LINE
8
WHITE
6
CONTINUOUS
10
149.681792999999999
20
-126.4297320000000013
11
163.4247680000000003
21
-129.350892999999985
0
LINE
8
WHITE
6
CONTINUOUS
10
167.920267999999993
20
-149.7830929999999796
11
164.9991069999999809
21
-163.5260679999999809
0
LINE
8
WHITE
6
CONTINUOUS
10
164.9991069999999809
20
-163.5260679999999809
11
151.2561319999999796
21
-160.6049069999999972
0
LINE
8
WHITE
6
CONTINUOUS
10
151.2561319999999796
20
-160.6049069999999972
11
154.1772929999999917
21
-146.8619319999999959
0
LINE
8
WHITE
6
CONTINUOUS
10
154.1772929999999917
20
-146.8619319999999959
11
167.920267999999993
21
-149.7830929999999796
0
LINE
8
WHITE
6
CONTINUOUS
10
170.0665679999999895
20
-48.017992999999997
11
167.1454070000000058
21
-61.7609679999999983
0
LINE
8
WHITE
6
CONTINUOUS
10
167.1454070000000058
20
-61.7609679999999983
11
153.4024320000000046
21
-58.8398070000000004
0
LINE
8
WHITE
6
CONTINUOUS
10
153.4024320000000046
20
-58.8398070000000004
11
156.3235929999999883
21
-45.0968319999999991
0
LINE
8
WHITE
6
CONTINUOUS
10
156.3235929999999883
20
-45.0968319999999991
11
170.0665679999999895
21
-48.017992999999997
0
LINE
8
WHITE
6
CONTINUOUS
10
169.8252679999999941
20
-72.2749929999999949
11
166.904106999999982
21
-86.0179679999999962
0
LINE
8
WHITE
6
CONTINUOUS
10
166.904106999999982
20
-86.0179679999999962
11
153.1611319999999807
21
-83.0968069999999983
0
LINE
8
WHITE
6
CONTINUOUS
10
153.1611319999999807
20
-83.0968069999999983
11
156.0822929999999928
21
-69.353831999999997
0
LINE
8
WHITE
6
CONTINUOUS
10
156.0822929999999928
20
-69.353831999999997
11
169.8252679999999941
21
-72.2749929999999949
0
LINE
8
WHITE
6
CONTINUOUS
10
192.596367999999984
20
-103.7089069999999964
11
178.8533929999999827
21
-106.6300679999999943
0
LINE
8
WHITE
6
CONTINUOUS
10
178.8533929999999827
20
-106.6300679999999943
11
175.9322319999999991
21
-92.887092999999993
0
LINE
8
WHITE
6
CONTINUOUS
10
175.9322319999999991
20
-92.887092999999993
11
189.6752070000000003
21
-89.9659319999999951
0
LINE
8
WHITE
6
CONTINUOUS
10
189.6752070000000003
20
-89.9659319999999951
11
192.596367999999984
21
-103.7089069999999964
0
LINE
8
WHITE
6
CONTINUOUS
10
201.2069679999999892
20
-121.3492069999999927
11
187.4639929999999879
21
-124.2703679999999906
0
LINE
8
WHITE
6
CONTINUOUS
10
187.4639929999999879
20
-124.2703679999999906
11
184.5428320000000042
21
-110.5273929999999893
0
LINE
8
WHITE
6
CONTINUOUS
10
184.5428320000000042
20
-110.5273929999999893
11
198.2858069999999771
21
-107.6062319999999914
0
LINE
8
WHITE
6
CONTINUOUS
10
198.2858069999999771
20
-107.6062319999999914
11
201.2069679999999892
21
-121.3492069999999927
0
LINE
8
WHITE
6
CONTINUOUS
10
209.8175679999999943
20
-139.0022069999999985
11
196.074592999999993
21
-141.9233679999999822
0
LINE
8
WHITE
6
CONTINUOUS
10
196.074592999999993
20
-141.9233679999999822
11
193.1534319999999809
21
-128.1803929999999809
0
LINE
8
WHITE
6
CONTINUOUS
10
193.1534319999999809
20
-128.1803929999999809
11
206.8964069999999822
21
-125.2592319999999972
0
LINE
8
WHITE
6
CONTINUOUS
10
206.8964069999999822
20
-125.2592319999999972
11
209.8175679999999943
21
-139.0022069999999985
0
LINE
8
WHITE
6
CONTINUOUS
10
197.6509679999999776
20
-58.827106999999998
11
183.9079930000000047
21
-61.7482679999999959
0
LINE
8
WHITE
6
CONTINUOUS
10
183.9079930000000047
20
-61.7482679999999959
11
180.9868319999999926
21
-48.0052929999999947
0
LINE
8
WHITE
6
CONTINUOUS
10
180.9868319999999926
20
-48.0052929999999947
11
194.7298069999999939
21
-45.0841319999999968
0
LINE
8
WHITE
6
CONTINUOUS
10
194.7298069999999939
20
-45.0841319999999968
11
197.6509679999999776
21
-58.827106999999998
0
LINE
8
WHITE
6
CONTINUOUS
10
197.9430679999999825
20
-83.0968069999999983
11
184.2000929999999812
21
-86.0179679999999962
0
LINE
8
WHITE
6
CONTINUOUS
10
184.2000929999999812
20
-86.0179679999999962
11
181.2789319999999975
21
-72.2749929999999949
0
LINE
8
WHITE
6
CONTINUOUS
10
181.2789319999999975
20
-72.2749929999999949
11
195.0219069999999988
21
-69.353831999999997
0
LINE
8
WHITE
6
CONTINUOUS
10
195.0219069999999988
20
-69.353831999999997
11
197.9430679999999825
21
-83.0968069999999983
0
LINE
8
WHITE
6
CONTINUOUS
10
211.2145679999999857
20
-99.7338069999999988
11
197.4715929999999844
21
-102.6549679999999967
0
LINE
8
WHITE
6
CONTINUOUS
10
197.4715929999999844
20
-102.6549679999999967
11
194.5504320000000007
21
-88.9119929999999954
0
LINE
8
WHITE
6
CONTINUOUS
10
194.5504320000000007
20
-88.9119929999999954
11
208.293407000000002
21
-85.9908319999999975
0
LINE
8
WHITE
6
CONTINUOUS
10
208.293407000000002
20
-85.9908319999999975
11
211.2145679999999857
21
-99.7338069999999988
0
LINE
8
WHITE
6
CONTINUOUS
10
219.8378679999999861
20
-117.3741069999999951
11
206.0948929999999848
21
-120.295267999999993
0
LINE
8
WHITE
6
CONTINUOUS
10
206.0948929999999848
20
-120.295267999999993
11
203.1737320000000011
21
-106.5522929999999917
0
LINE
8
WHITE
6
CONTINUOUS
10
203.1737320000000011
20
-106.5522929999999917
11
216.9167070000000024
21
-103.6311319999999938
0
LINE
8
WHITE
6
CONTINUOUS
10
216.9167070000000024
20
-103.6311319999999938
11
219.8378679999999861
21
-117.3741069999999951
0
LINE
8
WHITE
6
CONTINUOUS
10
228.4611679999999865
20
-135.0271070000000009
11
214.7181929999999852
21
-137.9482679999999846
0
LINE
8
WHITE
6
CONTINUOUS
10
214.7181929999999852
20
-137.9482679999999846
11
211.7970320000000015
21
-124.2052929999999975
0
LINE
8
WHITE
6
CONTINUOUS
10
211.7970320000000015
20
-124.2052929999999975
11
225.5400070000000028
21
-121.2841319999999996
0
LINE
8
WHITE
6
CONTINUOUS
10
225.5400070000000028
20
-121.2841319999999996
11
228.4611679999999865
21
-135.0271070000000009
0
LINE
8
WHITE
6
CONTINUOUS
10
216.2818680000000029
20
-54.8647069999999957
11
202.5388930000000016
21
-57.7858680000000007
0
LINE
8
WHITE
6
CONTINUOUS
10
202.5388930000000016
20
-57.7858680000000007
11
199.6177319999999895
21
-44.0428929999999994
0
LINE
8
WHITE
6
CONTINUOUS
10
199.6177319999999895
20
-44.0428929999999994
11
213.3607069999999908
21
-41.1217320000000015
0
LINE
8
WHITE
6
CONTINUOUS
10
213.3607069999999908
20
-41.1217320000000015
11
216.2818680000000029
21
-54.8647069999999957
0
LINE
8
WHITE
6
CONTINUOUS
10
216.5866680000000031
20
-79.1471069999999912
11
202.8436930000000018
21
-82.0682680000000033
0
LINE
8
WHITE
6
CONTINUOUS
10
202.8436930000000018
20
-82.0682680000000033
11
199.9225319999999897
21
-68.3252930000000021
0
LINE
8
WHITE
6
CONTINUOUS
10
199.9225319999999897
20
-68.3252930000000021
11
213.665506999999991
21
-65.4041319999999899
0
LINE
8
WHITE
6
CONTINUOUS
10
213.665506999999991
20
-65.4041319999999899
11
216.5866680000000031
21
-79.1471069999999912
0
LINE
8
WHITE
6
CONTINUOUS
10
229.8327679999999873
20
-95.7841069999999917
11
216.089792999999986
21
-98.7052679999999896
0
LINE
8
WHITE
6
CONTINUOUS
10
216.089792999999986
20
-98.7052679999999896
11
213.1686320000000023
21
-84.9622930000000025
0
LINE
8
WHITE
6
CONTINUOUS
10
213.1686320000000023
20
-84.9622930000000025
11
226.9116070000000036
21
-82.0411319999999904
0
LINE
8
WHITE
6
CONTINUOUS
10
226.9116070000000036
20
-82.0411319999999904
11
229.8327679999999873
21
-95.7841069999999917
0
LINE
8
WHITE
6
CONTINUOUS
10
238.468767999999983
20
-113.3990069999999974
11
224.7257929999999817
21
-116.3201679999999953
0
LINE
8
WHITE
6
CONTINUOUS
10
224.7257929999999817
20
-116.3201679999999953
11
221.804631999999998
21
-102.5771929999999941
0
LINE
8
WHITE
6
CONTINUOUS
10
221.804631999999998
20
-102.5771929999999941
11
235.5476069999999993
21
-99.6560319999999962
0
LINE
8
WHITE
6
CONTINUOUS
10
235.5476069999999993
20
-99.6560319999999962
11
238.468767999999983
21
-113.3990069999999974
0
LINE
8
WHITE
6
CONTINUOUS
10
247.0793679999999881
20
-131.0647069999999985
11
233.3363929999999868
21
-133.9858679999999822
0
LINE
8
WHITE
6
CONTINUOUS
10
233.3363929999999868
20
-133.9858679999999822
11
230.4152320000000032
21
-120.2428929999999951
0
LINE
8
WHITE
6
CONTINUOUS
10
230.4152320000000032
20
-120.2428929999999951
11
244.158206999999976
21
-117.3217319999999972
0
LINE
8
WHITE
6
CONTINUOUS
10
244.158206999999976
20
-117.3217319999999972
11
247.0793679999999881
21
-131.0647069999999985
0
LINE
8
WHITE
6
CONTINUOUS
10
235.192167999999981
20
-75.1720069999999936
11
221.4491929999999797
21
-78.0931679999999915
0
LINE
8
WHITE
6
CONTINUOUS
10
221.4491929999999797
20
-78.0931679999999915
11
218.5280319999999961
21
-64.3501929999999902
0
LINE
8
WHITE
6
CONTINUOUS
10
218.5280319999999961
20
-64.3501929999999902
11
232.2710069999999973
21
-61.4290319999999994
0
LINE
8
WHITE
6
CONTINUOUS
10
232.2710069999999973
20
-61.4290319999999994
11
235.192167999999981
21
-75.1720069999999936
0
LINE
8
WHITE
6
CONTINUOUS
10
248.4636679999999842
20
-91.8217069999999893
11
234.7206929999999829
21
-94.7428680000000014
0
LINE
8
WHITE
6
CONTINUOUS
10
234.7206929999999829
20
-94.7428680000000014
11
231.7995319999999992
21
-80.9998930000000001
0
LINE
8
WHITE
6
CONTINUOUS
10
231.7995319999999992
20
-80.9998930000000001
11
245.5425070000000005
21
-78.0787320000000022
0
LINE
8
WHITE
6
CONTINUOUS
10
245.5425070000000005
20
-78.0787320000000022
11
248.4636679999999842
21
-91.8217069999999893
0
LINE
8
WHITE
6
CONTINUOUS
10
257.0742679999999609
20
-109.4620069999999998
11
243.3312929999999881
21
-112.3831679999999977
0
LINE
8
WHITE
6
CONTINUOUS
10
243.3312929999999881
20
-112.3831679999999977
11
240.410131999999976
21
-98.6401929999999965
0
LINE
8
WHITE
6
CONTINUOUS
10
240.410131999999976
20
-98.6401929999999965
11
254.1531069999999772
21
-95.7190319999999986
0
LINE
8
WHITE
6
CONTINUOUS
10
254.1531069999999772
20
-95.7190319999999986
11
257.0742679999999609
21
-109.4620069999999998
0
LINE
8
WHITE
6
CONTINUOUS
10
265.7229679999999803
20
-127.1023069999999962
11
251.979992999999979
21
-130.0234680000000083
0
LINE
8
WHITE
6
CONTINUOUS
10
251.979992999999979
20
-130.0234680000000083
11
249.0588319999999953
21
-116.2804929999999928
0
LINE
8
WHITE
6
CONTINUOUS
10
249.0588319999999953
20
-116.2804929999999928
11
262.8018069999999966
21
-113.3593319999999949
0
LINE
8
WHITE
6
CONTINUOUS
10
262.8018069999999966
20
-113.3593319999999949
11
265.7229679999999803
21
-127.1023069999999962
0
LINE
8
WHITE
6
CONTINUOUS
10
253.8484679999999969
20
-71.235006999999996
11
240.1054929999999956
21
-74.1561679999999939
0
LINE
8
WHITE
6
CONTINUOUS
10
240.1054929999999956
20
-74.1561679999999939
11
237.1843319999999835
21
-60.4131929999999997
0
LINE
8
WHITE
6
CONTINUOUS
10
237.1843319999999835
20
-60.4131929999999997
11
250.9273069999999848
21
-57.4920319999999947
0
LINE
8
WHITE
6
CONTINUOUS
10
250.9273069999999848
20
-57.4920319999999947
11
253.8484679999999969
21
-71.235006999999996
0
LINE
8
WHITE
6
CONTINUOUS
10
262.5649999999999977
20
-94.1812999999999931
11
276.6150000000000091
21
-94.1812999999999931
0
LINE
8
WHITE
6
CONTINUOUS
10
276.6150000000000091
20
-94.1812999999999931
11
276.6150000000000091
21
-108.2312999999999903
0
LINE
8
WHITE
6
CONTINUOUS
10
276.6150000000000091
20
-108.2312999999999903
11
262.5649999999999977
21
-108.2312999999999903
0
LINE
8
WHITE
6
CONTINUOUS
10
262.5649999999999977
20
-108.2312999999999903
11
262.5649999999999977
21
-94.1812999999999931
0
LINE
8
WHITE
6
CONTINUOUS
10
271.7400000000000091
20
-113.2058999999999997
11
285.7899999999999636
21
-113.2058999999999997
0
LINE
8
WHITE
6
CONTINUOUS
10
285.7899999999999636
20
-113.2058999999999997
11
285.7899999999999636
21
-127.2558999999999969
0
LINE
8
WHITE
6
CONTINUOUS
10
285.7899999999999636
20
-127.2558999999999969
11
271.7400000000000091
21
-127.2558999999999969
0
LINE
8
WHITE
6
CONTINUOUS
10
271.7400000000000091
20
-127.2558999999999969
11
271.7400000000000091
21
-113.2058999999999997
0
LINE
8
WHITE
6
CONTINUOUS
10
264.3949999999999818
20
-31.875
11
278.4449999999999932
21
-31.875
0
LINE
8
WHITE
6
CONTINUOUS
10
278.4449999999999932
20
-31.875
11
278.4449999999999932
21
-45.9249999999999972
0
LINE
8
WHITE
6
CONTINUOUS
10
278.4449999999999932
20
-45.9249999999999972
11
264.3949999999999818
21
-45.9249999999999972
0
LINE
8
WHITE
6
CONTINUOUS
10
264.3949999999999818
20
-45.9249999999999972
11
264.3949999999999818
21
-31.875
0
LINE
8
WHITE
6
CONTINUOUS
10
267.1216999999999757
20
-55.9499999999999957
11
281.1716999999999871
21
-55.9499999999999957
0
LINE
8
WHITE
6
CONTINUOUS
10
281.1716999999999871
20
-55.9499999999999957
11
281.1716999999999871
21
-70.
0
LINE
8
WHITE
6
CONTINUOUS
10
281.1716999999999871
20
-70.
11
267.1216999999999757
21
-70.
0
LINE
8
WHITE
6
CONTINUOUS
10
267.1216999999999757
20
-70.
11
267.1216999999999757
21
-55.9499999999999957
0
LINE
8
WHITE
6
CONTINUOUS
10
276.7249999999999659
20
-75.1058999999999912
11
290.7749999999999773
21
-75.1058999999999912
0
LINE
8
WHITE
6
CONTINUOUS
10
290.7749999999999773
20
-75.1058999999999912
11
290.7749999999999773
21
-89.1559000000000026
0
LINE
8
WHITE
6
CONTINUOUS
10
290.7749999999999773
20
-89.1559000000000026
11
276.7249999999999659
21
-89.1559000000000026
0
LINE
8
WHITE
6
CONTINUOUS
10
276.7249999999999659
20
-89.1559000000000026
11
276.7249999999999659
21
-75.1058999999999912
0
LINE
8
WHITE
6
CONTINUOUS
10
281.6150000000000091
20
-94.1812999999999931
11
295.6649999999999636
21
-94.1812999999999931
0
LINE
8
WHITE
6
CONTINUOUS
10
295.6649999999999636
20
-94.1812999999999931
11
295.6649999999999636
21
-108.2312999999999903
0
LINE
8
WHITE
6
CONTINUOUS
10
295.6649999999999636
20
-108.2312999999999903
11
281.6150000000000091
21
-108.2312999999999903
0
LINE
8
WHITE
6
CONTINUOUS
10
281.6150000000000091
20
-108.2312999999999903
11
281.6150000000000091
21
-94.1812999999999931
0
LINE
8
WHITE
6
CONTINUOUS
10
290.9749999999999659
20
-113.218599999999995
11
305.0249999999999773
21
-113.218599999999995
0
LINE
8
WHITE
6
CONTINUOUS
10
305.0249999999999773
20
-113.218599999999995
11
305.0249999999999773
21
-127.2685999999999922
0
LINE
8
WHITE
6
CONTINUOUS
10
305.0249999999999773
20
-127.2685999999999922
11
290.9749999999999659
21
-127.2685999999999922
0
LINE
8
WHITE
6
CONTINUOUS
10
290.9749999999999659
20
-127.2685999999999922
11
290.9749999999999659
21
-113.218599999999995
0
LINE
8
WHITE
6
CONTINUOUS
10
283.4576999999999884
20
-31.875
11
297.5076999999999998
21
-31.875
0
LINE
8
WHITE
6
CONTINUOUS
10
297.5076999999999998
20
-31.875
11
297.5076999999999998
21
-45.9249999999999972
0
LINE
8
WHITE
6
CONTINUOUS
10
297.5076999999999998
20
-45.9249999999999972
11
283.4576999999999884
21
-45.9249999999999972
0
LINE
8
WHITE
6
CONTINUOUS
10
283.4576999999999884
20
-45.9249999999999972
11
283.4576999999999884
21
-31.875
0
LINE
8
WHITE
6
CONTINUOUS
10
286.3360000000000127
20
-55.9495999999999967
11
300.3859999999999673
21
-55.9495999999999967
0
LINE
8
WHITE
6
CONTINUOUS
10
300.3859999999999673
20
-55.9495999999999967
11
300.3859999999999673
21
-69.9996000000000009
0
LINE
8
WHITE
6
CONTINUOUS
10
300.3859999999999673
20
-69.9996000000000009
11
286.3360000000000127
21
-69.9996000000000009
0
LINE
8
WHITE
6
CONTINUOUS
10
286.3360000000000127
20
-69.9996000000000009
11
286.3360000000000127
21
-55.9495999999999967
0
LINE
8
WHITE
6
CONTINUOUS
10
295.7249999999999659
20
-75.1058999999999912
11
309.7749999999999773
21
-75.1058999999999912
0
LINE
8
WHITE
6
CONTINUOUS
10
309.7749999999999773
20
-75.1058999999999912
11
309.7749999999999773
21
-89.1559000000000026
0
LINE
8
WHITE
6
CONTINUOUS
10
309.7749999999999773
20
-89.1559000000000026
11
295.7249999999999659
21
-89.1559000000000026
0
LINE
8
WHITE
6
CONTINUOUS
10
295.7249999999999659
20
-89.1559000000000026
11
295.7249999999999659
21
-75.1058999999999912
0
LINE
8
WHITE
6
CONTINUOUS
10
291.012299999999982
20
-132.4749999999999943
11
305.0622999999999934
21
-132.4749999999999943
0
LINE
8
WHITE
6
CONTINUOUS
10
305.0622999999999934
20
-132.4749999999999943
11
305.0622999999999934
21
-146.5250000000000057
0
LINE
8
WHITE
6
CONTINUOUS
10
305.0622999999999934
20
-146.5250000000000057
11
291.012299999999982
21
-146.5250000000000057
0
LINE
8
WHITE
6
CONTINUOUS
10
291.012299999999982
20
-146.5250000000000057
11
291.012299999999982
21
-132.4749999999999943
0
LINE
8
WHITE
6
CONTINUOUS
10
310.0749999999999886
20
-113.2749999999999915
11
324.125
21
-113.2749999999999915
0
LINE
8
WHITE
6
CONTINUOUS
10
324.125
20
-113.2749999999999915
11
324.125
21
-127.3249999999999886
0
LINE
8
WHITE
6
CONTINUOUS
10
324.125
20
-127.3249999999999886
11
310.0749999999999886
21
-127.3249999999999886
0
LINE
8
WHITE
6
CONTINUOUS
10
310.0749999999999886
20
-127.3249999999999886
11
310.0749999999999886
21
-113.2749999999999915
0
LINE
8
WHITE
6
CONTINUOUS
10
310.0749999999999886
20
-132.4749999999999943
11
324.125
21
-132.4749999999999943
0
LINE
8
WHITE
6
CONTINUOUS
10
324.125
20
-132.4749999999999943
11
324.125
21
-146.5250000000000057
0
LINE
8
WHITE
6
CONTINUOUS
10
324.125
20
-146.5250000000000057
11
310.0749999999999886
21
-146.5250000000000057
0
LINE
8
WHITE
6
CONTINUOUS
10
310.0749999999999886
20
-146.5250000000000057
11
310.0749999999999886
21
-132.4749999999999943
0
LINE
8
WHITE
6
CONTINUOUS
10
303.2706999999999766
20
-31.8797999999999995
11
317.320699999999988
21
-31.8797999999999995
0
LINE
8
WHITE
6
CONTINUOUS
10
317.320699999999988
20
-31.8797999999999995
11
317.320699999999988
21
-45.9298000000000002
0
LINE
8
WHITE
6
CONTINUOUS
10
317.320699999999988
20
-45.9298000000000002
11
303.2706999999999766
21
-45.9298000000000002
0
LINE
8
WHITE
6
CONTINUOUS
10
303.2706999999999766
20
-45.9298000000000002
11
303.2706999999999766
21
-31.8797999999999995
0
LINE
8
WHITE
6
CONTINUOUS
10
126.150267999999997
20
-121.4387929999999898
11
123.2291069999999991
21
-135.1817680000000053
0
LINE
8
WHITE
6
CONTINUOUS
10
123.2291069999999991
20
-135.1817680000000053
11
109.4861319999999978
21
-132.2606069999999931
0
LINE
8
WHITE
6
CONTINUOUS
10
109.4861319999999978
20
-132.2606069999999931
11
112.4072929999999957
21
-118.5176319999999919
0
LINE
8
WHITE
6
CONTINUOUS
10
112.4072929999999957
20
-118.5176319999999919
11
126.150267999999997
21
-121.4387929999999898
0
LINE
8
WHITE
6
CONTINUOUS
10
128.1819679999999835
20
-39.0898929999999964
11
125.2608069999999998
21
-52.8328679999999977
0
LINE
8
WHITE
6
CONTINUOUS
10
125.2608069999999998
20
-52.8328679999999977
11
111.5178319999999985
21
-49.9117069999999998
0
LINE
8
WHITE
6
CONTINUOUS
10
111.5178319999999985
20
-49.9117069999999998
11
114.4389929999999964
21
-36.1687319999999985
0
LINE
8
WHITE
6
CONTINUOUS
10
114.4389929999999964
20
-36.1687319999999985
11
128.1819679999999835
21
-39.0898929999999964
0
CIRCLE
8
WHITE
10
337.0579999999999927
20
-48.7680000000000007
40
3.1999999999999997
0
LINE
8
WHITE
6
CONTINUOUS
10
258.1918679999999995
20
-45.9493069999999975
11
244.4488929999999982
21
-48.8704679999999954
0
LINE
8
WHITE
6
CONTINUOUS
10
244.4488929999999982
20
-48.8704679999999954
11
241.5277319999999861
21
-35.1274930000000012
0
LINE
8
WHITE
6
CONTINUOUS
10
241.5277319999999861
20
-35.1274930000000012
11
255.2707069999999874
21
-32.2063319999999962
0
LINE
8
WHITE
6
CONTINUOUS
10
255.2707069999999874
20
-32.2063319999999962
11
258.1918679999999995
21
-45.9493069999999975
0
LINE
8
WHITE
6
CONTINUOUS
10
239.5609680000000026
20
-49.9117069999999998
11
225.8179930000000013
21
-52.8328679999999977
0
LINE
8
WHITE
6
CONTINUOUS
10
225.8179930000000013
20
-52.8328679999999977
11
222.8968319999999892
21
-39.0898929999999964
0
LINE
8
WHITE
6
CONTINUOUS
10
222.8968319999999892
20
-39.0898929999999964
11
236.6398069999999905
21
-36.1687319999999985
0
LINE
8
WHITE
6
CONTINUOUS
10
236.6398069999999905
20
-36.1687319999999985
11
239.5609680000000026
21
-49.9117069999999998
0
CIRCLE
8
WHITE
10
121.7999999999999972
20
-28.6999999999999993
40
3.1999999999999997
0
LINE
8
WHITE
6
CONTINUOUS
10
107.5320679999999953
20
-117.4890929999999969
11
104.6109069999999974
21
-131.2320679999999982
0
LINE
8
WHITE
6
CONTINUOUS
10
104.6109069999999974
20
-131.2320679999999982
11
90.8679319999999962
21
-128.3109069999999861
0
LINE
8
WHITE
6
CONTINUOUS
10
90.8679319999999962
20
-128.3109069999999861
11
93.789092999999994
21
-114.567931999999999
0
LINE
8
WHITE
6
CONTINUOUS
10
93.789092999999994
20
-114.567931999999999
11
107.5320679999999953
21
-117.4890929999999969
0
LINE
8
WHITE
6
CONTINUOUS
10
267.0945679999999811
20
-87.8720069999999964
11
253.3515929999999798
21
-90.7931679999999943
0
LINE
8
WHITE
6
CONTINUOUS
10
253.3515929999999798
20
-90.7931679999999943
11
250.4304319999999962
21
-77.050192999999993
0
LINE
8
WHITE
6
CONTINUOUS
10
250.4304319999999962
20
-77.050192999999993
11
264.1734069999999974
21
-74.1290319999999952
0
LINE
8
WHITE
6
CONTINUOUS
10
264.1734069999999974
20
-74.1290319999999952
11
267.0945679999999811
21
-87.8720069999999964
0
CIRCLE
8
WHITE
10
178.6999999999999886
20
-149.0999999999999943
40
3.1999999999999997
0
LINE
8
WHITE
6
CONTINUOUS
10
329.1949999999999932
20
-132.4749999999999943
11
343.2450000000000045
21
-132.4749999999999943
0
LINE
8
WHITE
6
CONTINUOUS
10
343.2450000000000045
20
-132.4749999999999943
11
343.2450000000000045
21
-146.5250000000000057
0
LINE
8
WHITE
6
CONTINUOUS
10
343.2450000000000045
20
-146.5250000000000057
11
329.1949999999999932
21
-146.5250000000000057
0
LINE
8
WHITE
6
CONTINUOUS
10
329.1949999999999932
20
-146.5250000000000057
11
329.1949999999999932
21
-132.4749999999999943
0
CIRCLE
8
WHITE
10
170.6999999999999886
20
-110.8999999999999915
40
3.1999999999999997
0
LINE
8
WHITE
6
CONTINUOUS
10
52.384999999999998
20
-113.2149999999999892
11
66.4350000000000023
21
-113.2149999999999892
0
LINE
8
WHITE
6
CONTINUOUS
10
66.4350000000000023
20
-113.2149999999999892
11
66.4350000000000023
21
-127.2650000000000006
0
LINE
8
WHITE
6
CONTINUOUS
10
66.4350000000000023
20
-127.2650000000000006
11
52.384999999999998
21
-127.2650000000000006
0
LINE
8
WHITE
6
CONTINUOUS
10
52.384999999999998
20
-127.2650000000000006
11
52.384999999999998
21
-113.2149999999999892
0
LINE
8
WHITE
6
CONTINUOUS
10
329.1949999999999932
20
-113.2749999999999915
11
343.2450000000000045
21
-113.2749999999999915
0
LINE
8
WHITE
6
CONTINUOUS
10
343.2450000000000045
20
-113.2749999999999915
11
343.2450000000000045
21
-127.3249999999999886
0
LINE
8
WHITE
6
CONTINUOUS
10
343.2450000000000045
20
-127.3249999999999886
11
329.1949999999999932
21
-127.3249999999999886
0
LINE
8
WHITE
6
CONTINUOUS
10
329.1949999999999932
20
-127.3249999999999886
11
329.1949999999999932
21
-113.2749999999999915
0
LINE
8
WHITE
6
CONTINUOUS
10
300.6949999999999932
20
-94.1749999999999972
11
314.7450000000000045
21
-94.1749999999999972
0
LINE
8
WHITE
6
CONTINUOUS
10
314.7450000000000045
20
-94.1749999999999972
11
314.7450000000000045
21
-108.2249999999999943
0
LINE
8
WHITE
6
CONTINUOUS
10
314.7450000000000045
20
-108.2249999999999943
11
300.6949999999999932
21
-108.2249999999999943
0
LINE
8
WHITE
6
CONTINUOUS
10
300.6949999999999932
20
-108.2249999999999943
11
300.6949999999999932
21
-94.1749999999999972
  0
ENDSEC
  0
EOF
