  0
SECTION
  2
HEADER
  9
$ANGBASE
  50
0.0
  9
$ANGDIR
  70
1
  9
$MEASUREMENT
  70
0
  0
ENDSEC
  0
SECTION
  2
TABLES
  0
TABLE
  2
LTYPE
  70
4
  0
LTYPE
  5
40F
  2
CONTINUOUS
  70
0
  3
Solid line
  72
65
  73
0
  40
0.0
  0
LTYPE
  5
410
  2
DASHDOT
 70
0
  3
Dash Dot ____ _ ____ _
 72
65
 73
4
 40
2.0
 49
1.25
 49
-0.25
 49
0.25
 49
-0.25
  0
LTYPE
  5
411
  2
DASHED
 70
0
  3
Dashed __ __ __ __ __
 72
65
 73
2
 40
0.75
 49
0.5
 49
-0.25
  0
LTYPE
  5
43B
  2
DOTTED
 70
0
  3
Dotted .  .  .  .
 72
65
 73
2
 40
0.2
 49
0.0
 49
-0.2
  0
ENDTAB
  0
TABLE
  2
STYLE
  70
4
  0
STYLE
  2
KICAD
  70
0
  40
0
  41
1
  42
1
  50
0
  71
0
  3
isocp.shx
  0
STYLE
  2
KICADB
  70
0
  40
0
  41
1
  42
1
  50
0
  71
0
  3
isocp.shx
  0
STYLE
  2
KICADI
  70
0
  40
0
  41
1
  42
1
  50
15
  71
0
  3
isocp.shx
  0
STYLE
  2
KICADBI
  70
0
  40
0
  41
1
  42
1
  50
15
  71
0
  3
isocp.shx
  0
ENDTAB
  0
TABLE
  2
LAYER
  70
35
  0
LAYER
  2
BLACK
  70
0
  62
7
  6
CONTINUOUS
  0
LAYER
  2
GRAY1
  70
0
  62
251
  6
CONTINUOUS
  0
LAYER
  2
GRAY2
  70
0
  62
8
  6
CONTINUOUS
  0
LAYER
  2
GRAY3
  70
0
  62
9
  6
CONTINUOUS
  0
LAYER
  2
WHITE
  70
0
  62
7
  6
CONTINUOUS
  0
LAYER
  2
LYELLOW
  70
0
  62
51
  6
CONTINUOUS
  0
LAYER
  2
LORANGE
  70
0
  62
41
  6
CONTINUOUS
  0
LAYER
  2
BLUE1
  70
0
  62
178
  6
CONTINUOUS
  0
LAYER
  2
GREEN1
  70
0
  62
98
  6
CONTINUOUS
  0
LAYER
  2
CYAN1
  70
0
  62
138
  6
CONTINUOUS
  0
LAYER
  2
RED1
  70
0
  62
18
  6
CONTINUOUS
  0
LAYER
  2
MAGENTA1
  70
0
  62
228
  6
CONTINUOUS
  0
LAYER
  2
BROWN1
  70
0
  62
58
  6
CONTINUOUS
  0
LAYER
  2
ORANGE1
  70
0
  62
34
  6
CONTINUOUS
  0
LAYER
  2
BLUE2
  70
0
  62
5
  6
CONTINUOUS
  0
LAYER
  2
GREEN2
  70
0
  62
3
  6
CONTINUOUS
  0
LAYER
  2
CYAN2
  70
0
  62
4
  6
CONTINUOUS
  0
LAYER
  2
RED2
  70
0
  62
1
  6
CONTINUOUS
  0
LAYER
  2
MAGENTA2
  70
0
  62
6
  6
CONTINUOUS
  0
LAYER
  2
BROWN2
  70
0
  62
54
  6
CONTINUOUS
  0
LAYER
  2
ORANGE2
  70
0
  62
42
  6
CONTINUOUS
  0
LAYER
  2
BLUE3
  70
0
  62
171
  6
CONTINUOUS
  0
LAYER
  2
GREEN3
  70
0
  62
91
  6
CONTINUOUS
  0
LAYER
  2
CYAN3
  70
0
  62
131
  6
CONTINUOUS
  0
LAYER
  2
RED3
  70
0
  62
11
  6
CONTINUOUS
  0
LAYER
  2
MAGENTA3
  70
0
  62
221
  6
CONTINUOUS
  0
LAYER
  2
YELLOW3
  70
0
  62
2
  6
CONTINUOUS
  0
LAYER
  2
ORANGE3
  70
0
  62
32
  6
CONTINUOUS
  0
LAYER
  2
BLUE4
  70
0
  62
5
  6
CONTINUOUS
  0
LAYER
  2
GREEN4
  70
0
  62
3
  6
CONTINUOUS
  0
LAYER
  2
CYAN4
  70
0
  62
4
  6
CONTINUOUS
  0
LAYER
  2
RED4
  70
0
  62
1
  6
CONTINUOUS
  0
LAYER
  2
MAGENTA4
  70
0
  62
6
  6
CONTINUOUS
  0
LAYER
  2
YELLOW4
  70
0
  62
2
  6
CONTINUOUS
  0
LAYER
  2
ORANGE4
  70
0
  62
40
  6
CONTINUOUS
  0
ENDTAB
  0
ENDSEC
  0
SECTION
  2
ENTITIES
0
LINE
8
WHITE
6
CONTINUOUS
10
7.1901614173228348
20
-6.5991259842519687
11
9.7681141732283461
21
-6.0511838976377952
0
LINE
8
WHITE
6
CONTINUOUS
10
6.6377992125984253
20
-6.5991259842519687
11
7.1901614173228348
21
-6.5991259842519687
0
LINE
8
WHITE
6
CONTINUOUS
10
4.0601102362204724
20
-6.0511838976377952
11
6.6377992125984253
21
-6.5991259842519687
0
LINE
8
WHITE
6
CONTINUOUS
10
1.0792362204724408
20
-0.9616172047244095
11
13.681104291338583
21
-0.9616172047244095
0
ARC
8
WHITE
10
1.0792362204724408
20
-1.0403574803149607
40
0.0787401574804035
50
90.00000000
51
179.99991406
0
LINE
8
WHITE
6
CONTINUOUS
10
13.7598444488188978
20
-1.0403573622047244
11
13.7598444488188978
21
-5.9724437401574804
0
LINE
8
WHITE
6
CONTINUOUS
10
1.000496062992126
20
-1.0403573622047244
11
1.000496062992126
21
-5.9724437401574804
0
LINE
8
WHITE
6
CONTINUOUS
10
1.0792362204724408
20
-6.0511838976377952
11
4.0601102362204724
21
-6.0511838976377952
0
LINE
8
WHITE
6
CONTINUOUS
10
9.7681141732283461
20
-6.0511838976377952
11
13.681104291338583
21
-6.0511838976377952
0
ARC
8
WHITE
10
1.0792362204724408
20
-5.9724448818897633
40
0.0787390157480315
50
-180.00083079
51
-90.00000000
0
ARC
8
WHITE
10
13.6811062992125976
20
-1.0403543307086613
40
0.0787371260098533
50
-0.00220594
51
90.00146110
0
ARC
8
WHITE
10
13.6811023622047241
20
-5.9724409448818898
40
0.0787420866637882
50
-89.99859630
51
-0.00203395
0
CIRCLE
8
WHITE
10
2.1811023622047245
20
-5.2625984251968498
40
0.1259842519685039
0
CIRCLE
8
WHITE
10
9.0233379921259846
20
-1.0997050787401574
40
0.1259842519685039
0
CIRCLE
8
WHITE
10
9.4749999999999996
20
-5.6899999999999995
40
0.1259842519685039
0
CIRCLE
8
WHITE
10
12.9221456692913375
20
-5.1875866141732283
40
0.1259842519685039
0
CIRCLE
8
WHITE
10
2.2399999999999998
20
-2.8599999999999999
40
0.1259842519685039
0
CIRCLE
8
WHITE
10
4.3999999999999995
20
-5.71
40
0.1259842519685039
0
LINE
8
WHITE
6
CONTINUOUS
10
2.813976377952756
20
-4.4569251968503938
11
3.3671259842519685
21
-4.4569251968503938
0
LINE
8
WHITE
6
CONTINUOUS
10
3.3671259842519685
20
-4.4569251968503938
11
3.3671259842519685
21
-5.0100748031496058
0
LINE
8
WHITE
6
CONTINUOUS
10
3.3671259842519685
20
-5.0100748031496058
11
2.813976377952756
21
-5.0100748031496058
0
LINE
8
WHITE
6
CONTINUOUS
10
2.813976377952756
20
-5.0100748031496058
11
2.813976377952756
21
-4.4569251968503938
0
LINE
8
WHITE
6
CONTINUOUS
10
1.1969251968503938
20
-1.2704251968503937
11
1.7500748031496063
21
-1.2704251968503937
0
LINE
8
WHITE
6
CONTINUOUS
10
1.7500748031496063
20
-1.2704251968503937
11
1.7500748031496063
21
-1.8235748031496062
0
LINE
8
WHITE
6
CONTINUOUS
10
1.7500748031496063
20
-1.8235748031496062
11
1.1969251968503938
21
-1.8235748031496062
0
LINE
8
WHITE
6
CONTINUOUS
10
1.1969251968503938
20
-1.8235748031496062
11
1.1969251968503938
21
-1.2704251968503937
0
LINE
8
WHITE
6
CONTINUOUS
10
1.5889251968503937
20
-2.2074251968503935
11
2.1420748031496064
21
-2.2074251968503935
0
LINE
8
WHITE
6
CONTINUOUS
10
2.1420748031496064
20
-2.2074251968503935
11
2.1420748031496064
21
-2.760574803149606
0
LINE
8
WHITE
6
CONTINUOUS
10
2.1420748031496064
20
-2.760574803149606
11
1.5889251968503937
21
-2.760574803149606
0
LINE
8
WHITE
6
CONTINUOUS
10
1.5889251968503937
20
-2.760574803149606
11
1.5889251968503937
21
-2.2074251968503935
0
LINE
8
WHITE
6
CONTINUOUS
10
2.1394251968503935
20
-1.2109251968503936
11
2.6925748031496064
21
-1.2109251968503936
0
LINE
8
WHITE
6
CONTINUOUS
10
2.6925748031496064
20
-1.2109251968503936
11
2.6925748031496064
21
-1.7640748031496063
0
LINE
8
WHITE
6
CONTINUOUS
10
2.6925748031496064
20
-1.7640748031496063
11
2.1394251968503935
21
-1.7640748031496063
0
LINE
8
WHITE
6
CONTINUOUS
10
2.1394251968503935
20
-1.7640748031496063
11
2.1394251968503935
21
-1.2109251968503936
0
LINE
8
WHITE
6
CONTINUOUS
10
2.3391089763779527
20
-2.2074251968503935
11
2.8922585826771652
21
-2.2074251968503935
0
LINE
8
WHITE
6
CONTINUOUS
10
2.8922585826771652
20
-2.2074251968503935
11
2.8922585826771652
21
-2.760574803149606
0
LINE
8
WHITE
6
CONTINUOUS
10
2.8922585826771652
20
-2.760574803149606
11
2.3391089763779527
21
-2.760574803149606
0
LINE
8
WHITE
6
CONTINUOUS
10
2.3391089763779527
20
-2.760574803149606
11
2.3391089763779527
21
-2.2074251968503935
0
LINE
8
WHITE
6
CONTINUOUS
10
2.5499251968503938
20
-2.9574251968503935
11
3.1030748031496063
21
-2.9574251968503935
0
LINE
8
WHITE
6
CONTINUOUS
10
3.1030748031496063
20
-2.9574251968503935
11
3.1030748031496063
21
-3.510574803149606
0
LINE
8
WHITE
6
CONTINUOUS
10
3.1030748031496063
20
-3.510574803149606
11
2.5499251968503938
21
-3.510574803149606
0
LINE
8
WHITE
6
CONTINUOUS
10
2.5499251968503938
20
-3.510574803149606
11
2.5499251968503938
21
-2.9574251968503935
0
LINE
8
WHITE
6
CONTINUOUS
10
2.5764251968503937
20
-3.7074251968503935
11
3.1295748031496062
21
-3.7074251968503935
0
LINE
8
WHITE
6
CONTINUOUS
10
3.1295748031496062
20
-3.7074251968503935
11
3.1295748031496062
21
-4.2605748031496065
0
LINE
8
WHITE
6
CONTINUOUS
10
3.1295748031496062
20
-4.2605748031496065
11
2.5764251968503937
21
-4.2605748031496065
0
LINE
8
WHITE
6
CONTINUOUS
10
2.5764251968503937
20
-4.2605748031496065
11
2.5764251968503937
21
-3.7074251968503935
0
LINE
8
WHITE
6
CONTINUOUS
10
2.8899251968503936
20
-1.2104251968503936
11
3.4430748031496061
21
-1.2104251968503936
0
LINE
8
WHITE
6
CONTINUOUS
10
3.4430748031496061
20
-1.2104251968503936
11
3.4430748031496061
21
-1.7635748031496064
0
LINE
8
WHITE
6
CONTINUOUS
10
3.4430748031496061
20
-1.7635748031496064
11
2.8899251968503936
21
-1.7635748031496064
0
LINE
8
WHITE
6
CONTINUOUS
10
2.8899251968503936
20
-1.7635748031496064
11
2.8899251968503936
21
-1.2104251968503936
0
LINE
8
WHITE
6
CONTINUOUS
10
3.0889251968503935
20
-2.1489251968503935
11
3.6420748031496064
21
-2.1489251968503935
0
LINE
8
WHITE
6
CONTINUOUS
10
3.6420748031496064
20
-2.1489251968503935
11
3.6420748031496064
21
-2.702074803149606
0
LINE
8
WHITE
6
CONTINUOUS
10
3.6420748031496064
20
-2.702074803149606
11
3.0889251968503935
21
-2.702074803149606
0
LINE
8
WHITE
6
CONTINUOUS
10
3.0889251968503935
20
-2.702074803149606
11
3.0889251968503935
21
-2.1489251968503935
0
LINE
8
WHITE
6
CONTINUOUS
10
3.9615341732283462
20
-3.0339721653543306
11
3.8465278346456691
21
-3.5750341732283464
0
LINE
8
WHITE
6
CONTINUOUS
10
3.8465278346456691
20
-3.5750341732283464
11
3.3054658267716537
21
-3.4600278346456692
0
LINE
8
WHITE
6
CONTINUOUS
10
3.3054658267716537
20
-3.4600278346456692
11
3.4204721653543309
21
-2.9189658267716534
0
LINE
8
WHITE
6
CONTINUOUS
10
3.4204721653543309
20
-2.9189658267716534
11
3.9615341732283462
21
-3.0339721653543306
0
LINE
8
WHITE
6
CONTINUOUS
10
3.9890341732283465
20
-3.8069721653543307
11
3.8740278346456694
21
-4.3480341732283465
0
LINE
8
WHITE
6
CONTINUOUS
10
3.8740278346456694
20
-4.3480341732283465
11
3.3329658267716535
21
-4.2330278346456689
0
LINE
8
WHITE
6
CONTINUOUS
10
3.3329658267716535
20
-4.2330278346456689
11
3.4479721653543307
21
-3.6919658267716535
0
LINE
8
WHITE
6
CONTINUOUS
10
3.4479721653543307
20
-3.6919658267716535
11
3.9890341732283465
21
-3.8069721653543307
0
LINE
8
WHITE
6
CONTINUOUS
10
4.3135341732283461
20
-1.3834721653543307
11
4.1985278346456694
21
-1.9245341732283465
0
LINE
8
WHITE
6
CONTINUOUS
10
4.1985278346456694
20
-1.9245341732283465
11
3.6574658267716535
21
-1.8095278346456694
0
LINE
8
WHITE
6
CONTINUOUS
10
3.6574658267716535
20
-1.8095278346456694
11
3.7724721653543307
21
-1.2684658267716535
0
LINE
8
WHITE
6
CONTINUOUS
10
3.7724721653543307
20
-1.2684658267716535
11
4.3135341732283461
21
-1.3834721653543307
0
LINE
8
WHITE
6
CONTINUOUS
10
4.4845341732283464
20
-2.3779721653543309
11
4.3695278346456696
21
-2.9190341732283462
0
LINE
8
WHITE
6
CONTINUOUS
10
4.3695278346456696
20
-2.9190341732283462
11
3.8284658267716534
21
-2.8040278346456691
0
LINE
8
WHITE
6
CONTINUOUS
10
3.8284658267716534
20
-2.8040278346456691
11
3.9434721653543305
21
-2.2629658267716537
0
LINE
8
WHITE
6
CONTINUOUS
10
3.9434721653543305
20
-2.2629658267716537
11
4.4845341732283464
21
-2.3779721653543309
0
LINE
8
WHITE
6
CONTINUOUS
10
4.695034173228346
20
-3.1899721653543307
11
4.5800278346456693
21
-3.7310341732283465
0
LINE
8
WHITE
6
CONTINUOUS
10
4.5800278346456693
20
-3.7310341732283465
11
4.0389658267716531
21
-3.6160278346456693
0
LINE
8
WHITE
6
CONTINUOUS
10
4.0389658267716531
20
-3.6160278346456693
11
4.1539721653543307
21
-3.0749658267716535
0
LINE
8
WHITE
6
CONTINUOUS
10
4.1539721653543307
20
-3.0749658267716535
11
4.695034173228346
21
-3.1899721653543307
0
LINE
8
WHITE
6
CONTINUOUS
10
4.7225341732283468
20
-3.9629721653543308
11
4.6075278346456692
21
-4.5040341732283462
0
LINE
8
WHITE
6
CONTINUOUS
10
4.6075278346456692
20
-4.5040341732283462
11
4.0664658267716538
21
-4.3890278346456695
0
LINE
8
WHITE
6
CONTINUOUS
10
4.0664658267716538
20
-4.3890278346456695
11
4.1814721653543305
21
-3.8479658267716537
0
LINE
8
WHITE
6
CONTINUOUS
10
4.1814721653543305
20
-3.8479658267716537
11
4.7225341732283468
21
-3.9629721653543308
0
LINE
8
WHITE
6
CONTINUOUS
10
5.2180341732283466
20
-2.5344721653543307
11
5.103027834645669
21
-3.0755341732283465
0
LINE
8
WHITE
6
CONTINUOUS
10
5.103027834645669
20
-3.0755341732283465
11
4.5619658267716536
21
-2.9605278346456694
0
LINE
8
WHITE
6
CONTINUOUS
10
4.5619658267716536
20
-2.9605278346456694
11
4.6769721653543304
21
-2.4194658267716536
0
LINE
8
WHITE
6
CONTINUOUS
10
4.6769721653543304
20
-2.4194658267716536
11
5.2180341732283466
21
-2.5344721653543307
0
LINE
8
WHITE
6
CONTINUOUS
10
5.4280341732283466
20
-3.3464721653543306
11
5.313027834645669
21
-3.8875341732283464
0
LINE
8
WHITE
6
CONTINUOUS
10
5.313027834645669
20
-3.8875341732283464
11
4.7719658267716536
21
-3.7725278346456692
0
LINE
8
WHITE
6
CONTINUOUS
10
4.7719658267716536
20
-3.7725278346456692
11
4.8869721653543303
21
-3.2314658267716534
0
LINE
8
WHITE
6
CONTINUOUS
10
4.8869721653543303
20
-3.2314658267716534
11
5.4280341732283466
21
-3.3464721653543306
0
LINE
8
WHITE
6
CONTINUOUS
10
5.4545341732283461
20
-4.1174721653543305
11
5.3395278346456694
21
-4.6585341732283467
0
LINE
8
WHITE
6
CONTINUOUS
10
5.3395278346456694
20
-4.6585341732283467
11
4.7984658267716531
21
-4.5435278346456691
0
LINE
8
WHITE
6
CONTINUOUS
10
4.7984658267716531
20
-4.5435278346456691
11
4.9134721653543307
21
-4.0024658267716537
0
LINE
8
WHITE
6
CONTINUOUS
10
4.9134721653543307
20
-4.0024658267716537
11
5.4545341732283461
21
-4.1174721653543305
0
LINE
8
WHITE
6
CONTINUOUS
10
5.7005459842519688
20
-4.937054842519685
11
5.5855396456692912
21
-5.4781168503937003
0
LINE
8
WHITE
6
CONTINUOUS
10
5.5855396456692912
20
-5.4781168503937003
11
5.0444776377952758
21
-5.3631105118110236
0
LINE
8
WHITE
6
CONTINUOUS
10
5.0444776377952758
20
-5.3631105118110236
11
5.1594839763779525
21
-4.8220485039370073
0
LINE
8
WHITE
6
CONTINUOUS
10
5.1594839763779525
20
-4.8220485039370073
11
5.7005459842519688
21
-4.937054842519685
0
LINE
8
WHITE
6
CONTINUOUS
10
5.9625341732283461
20
-1.7344721653543307
11
5.8475278346456694
21
-2.2755341732283463
0
LINE
8
WHITE
6
CONTINUOUS
10
5.8475278346456694
20
-2.2755341732283463
11
5.3064658267716531
21
-2.1605278346456691
0
LINE
8
WHITE
6
CONTINUOUS
10
5.3064658267716531
20
-2.1605278346456691
11
5.4214721653543307
21
-1.6194658267716535
0
LINE
8
WHITE
6
CONTINUOUS
10
5.4214721653543307
20
-1.6194658267716535
11
5.9625341732283461
21
-1.7344721653543307
0
LINE
8
WHITE
6
CONTINUOUS
10
5.9520341732283466
20
-2.6904721653543309
11
5.837027834645669
21
-3.2315341732283462
0
LINE
8
WHITE
6
CONTINUOUS
10
5.837027834645669
20
-3.2315341732283462
11
5.2959658267716536
21
-3.1165278346456691
0
LINE
8
WHITE
6
CONTINUOUS
10
5.2959658267716536
20
-3.1165278346456691
11
5.4109721653543303
21
-2.5754658267716537
0
LINE
8
WHITE
6
CONTINUOUS
10
5.4109721653543303
20
-2.5754658267716537
11
5.9520341732283466
21
-2.6904721653543309
0
LINE
8
WHITE
6
CONTINUOUS
10
6.1620341732283466
20
-3.5004721653543305
11
6.047027834645669
21
-4.0415341732283467
0
LINE
8
WHITE
6
CONTINUOUS
10
6.047027834645669
20
-4.0415341732283467
11
5.5059658267716536
21
-3.9265278346456691
0
LINE
8
WHITE
6
CONTINUOUS
10
5.5059658267716536
20
-3.9265278346456691
11
5.6209721653543303
21
-3.3854658267716533
0
LINE
8
WHITE
6
CONTINUOUS
10
5.6209721653543303
20
-3.3854658267716533
11
6.1620341732283466
21
-3.5004721653543305
0
LINE
8
WHITE
6
CONTINUOUS
10
6.1885341732283461
20
-4.2734721653543311
11
6.0735278346456694
21
-4.8145341732283464
0
LINE
8
WHITE
6
CONTINUOUS
10
6.0735278346456694
20
-4.8145341732283464
11
5.5324658267716531
21
-4.6995278346456688
0
LINE
8
WHITE
6
CONTINUOUS
10
5.5324658267716531
20
-4.6995278346456688
11
5.6474721653543307
21
-4.1584658267716534
0
LINE
8
WHITE
6
CONTINUOUS
10
5.6474721653543307
20
-4.1584658267716534
11
6.1885341732283461
21
-4.2734721653543311
0
LINE
8
WHITE
6
CONTINUOUS
10
6.4340459842519682
20
-5.0925548425196849
11
6.3190396456692914
21
-5.6336168503937003
0
LINE
8
WHITE
6
CONTINUOUS
10
6.3190396456692914
20
-5.6336168503937003
11
5.7779776377952752
21
-5.5186105118110236
0
LINE
8
WHITE
6
CONTINUOUS
10
5.7779776377952752
20
-5.5186105118110236
11
5.8929839763779528
21
-4.9775485039370073
0
LINE
8
WHITE
6
CONTINUOUS
10
5.8929839763779528
20
-4.9775485039370073
11
6.4340459842519682
21
-5.0925548425196849
0
LINE
8
WHITE
6
CONTINUOUS
10
6.6110341732283464
20
-5.896972165354331
11
6.4960278346456688
21
-6.4380341732283464
0
LINE
8
WHITE
6
CONTINUOUS
10
6.4960278346456688
20
-6.4380341732283464
11
5.9549658267716534
21
-6.3230278346456688
0
LINE
8
WHITE
6
CONTINUOUS
10
5.9549658267716534
20
-6.3230278346456688
11
6.0699721653543302
21
-5.7819658267716534
0
LINE
8
WHITE
6
CONTINUOUS
10
6.0699721653543302
20
-5.7819658267716534
11
6.6110341732283464
21
-5.896972165354331
0
LINE
8
WHITE
6
CONTINUOUS
10
6.6955341732283467
20
-1.8904721653543306
11
6.580527834645669
21
-2.4315341732283464
0
LINE
8
WHITE
6
CONTINUOUS
10
6.580527834645669
20
-2.4315341732283464
11
6.0394658267716537
21
-2.3165278346456692
0
LINE
8
WHITE
6
CONTINUOUS
10
6.0394658267716537
20
-2.3165278346456692
11
6.1544721653543304
21
-1.7754658267716534
0
LINE
8
WHITE
6
CONTINUOUS
10
6.1544721653543304
20
-1.7754658267716534
11
6.6955341732283467
21
-1.8904721653543306
0
LINE
8
WHITE
6
CONTINUOUS
10
6.6860341732283466
20
-2.8454721653543307
11
6.571027834645669
21
-3.3865341732283465
0
LINE
8
WHITE
6
CONTINUOUS
10
6.571027834645669
20
-3.3865341732283465
11
6.0299658267716536
21
-3.2715278346456693
0
LINE
8
WHITE
6
CONTINUOUS
10
6.0299658267716536
20
-3.2715278346456693
11
6.1449721653543303
21
-2.7304658267716535
0
LINE
8
WHITE
6
CONTINUOUS
10
6.1449721653543303
20
-2.7304658267716535
11
6.6860341732283466
21
-2.8454721653543307
0
LINE
8
WHITE
6
CONTINUOUS
10
7.5825341732283462
20
-4.0830278346456694
11
7.0414721653543308
21
-4.1980341732283462
0
LINE
8
WHITE
6
CONTINUOUS
10
7.0414721653543308
20
-4.1980341732283462
11
6.9264658267716532
21
-3.6569721653543308
0
LINE
8
WHITE
6
CONTINUOUS
10
6.9264658267716532
20
-3.6569721653543308
11
7.4675278346456695
21
-3.5419658267716536
0
LINE
8
WHITE
6
CONTINUOUS
10
7.4675278346456695
20
-3.5419658267716536
11
7.5825341732283462
21
-4.0830278346456694
0
LINE
8
WHITE
6
CONTINUOUS
10
7.9215341732283466
20
-4.7775278346456691
11
7.3804721653543304
21
-4.8925341732283467
0
LINE
8
WHITE
6
CONTINUOUS
10
7.3804721653543304
20
-4.8925341732283467
11
7.2654658267716536
21
-4.3514721653543305
0
LINE
8
WHITE
6
CONTINUOUS
10
7.2654658267716536
20
-4.3514721653543305
11
7.806527834645669
21
-4.2364658267716537
0
LINE
8
WHITE
6
CONTINUOUS
10
7.806527834645669
20
-4.2364658267716537
11
7.9215341732283466
21
-4.7775278346456691
0
LINE
8
WHITE
6
CONTINUOUS
10
8.260534173228347
20
-5.4725278346456694
11
7.7194721653543308
21
-5.5875341732283461
0
LINE
8
WHITE
6
CONTINUOUS
10
7.7194721653543308
20
-5.5875341732283461
11
7.6044658267716532
21
-5.0464721653543307
0
LINE
8
WHITE
6
CONTINUOUS
10
7.6044658267716532
20
-5.0464721653543307
11
8.1455278346456694
21
-4.9314658267716531
0
LINE
8
WHITE
6
CONTINUOUS
10
8.1455278346456694
20
-4.9314658267716531
11
8.260534173228347
21
-5.4725278346456694
0
LINE
8
WHITE
6
CONTINUOUS
10
7.7815341732283461
20
-2.3160278346456691
11
7.2404721653543307
21
-2.4310341732283463
0
LINE
8
WHITE
6
CONTINUOUS
10
7.2404721653543307
20
-2.4310341732283463
11
7.1254658267716531
21
-1.8899721653543307
0
LINE
8
WHITE
6
CONTINUOUS
10
7.1254658267716531
20
-1.8899721653543307
11
7.6665278346456693
21
-1.7749658267716535
0
LINE
8
WHITE
6
CONTINUOUS
10
7.6665278346456693
20
-1.7749658267716535
11
7.7815341732283461
21
-2.3160278346456691
0
LINE
8
WHITE
6
CONTINUOUS
10
7.7930341732283459
20
-3.2715278346456693
11
7.2519721653543305
21
-3.3865341732283465
0
LINE
8
WHITE
6
CONTINUOUS
10
7.2519721653543305
20
-3.3865341732283465
11
7.1369658267716538
21
-2.8454721653543307
0
LINE
8
WHITE
6
CONTINUOUS
10
7.1369658267716538
20
-2.8454721653543307
11
7.6780278346456692
21
-2.7304658267716535
0
LINE
8
WHITE
6
CONTINUOUS
10
7.6780278346456692
20
-2.7304658267716535
11
7.7930341732283459
21
-3.2715278346456693
0
LINE
8
WHITE
6
CONTINUOUS
10
8.3155341732283468
20
-3.9265278346456691
11
7.7744721653543305
21
-4.0415341732283467
0
LINE
8
WHITE
6
CONTINUOUS
10
7.7744721653543305
20
-4.0415341732283467
11
7.6594658267716538
21
-3.5004721653543305
0
LINE
8
WHITE
6
CONTINUOUS
10
7.6594658267716538
20
-3.5004721653543305
11
8.2005278346456691
21
-3.3854658267716533
0
LINE
8
WHITE
6
CONTINUOUS
10
8.2005278346456691
20
-3.3854658267716533
11
8.3155341732283468
21
-3.9265278346456691
0
LINE
8
WHITE
6
CONTINUOUS
10
8.655034173228346
20
-4.6210278346456688
11
8.1139721653543297
21
-4.7360341732283464
0
LINE
8
WHITE
6
CONTINUOUS
10
8.1139721653543297
20
-4.7360341732283464
11
7.998965826771653
21
-4.194972165354331
0
LINE
8
WHITE
6
CONTINUOUS
10
7.998965826771653
20
-4.194972165354331
11
8.5400278346456684
21
-4.0799658267716534
0
LINE
8
WHITE
6
CONTINUOUS
10
8.5400278346456684
20
-4.0799658267716534
11
8.655034173228346
21
-4.6210278346456688
0
LINE
8
WHITE
6
CONTINUOUS
10
8.994534173228347
20
-5.3160278346456691
11
8.4534721653543308
21
-5.4310341732283467
0
LINE
8
WHITE
6
CONTINUOUS
10
8.4534721653543308
20
-5.4310341732283467
11
8.3384658267716532
21
-4.8899721653543304
0
LINE
8
WHITE
6
CONTINUOUS
10
8.3384658267716532
20
-4.8899721653543304
11
8.8795278346456694
21
-4.7749658267716537
0
LINE
8
WHITE
6
CONTINUOUS
10
8.8795278346456694
20
-4.7749658267716537
11
8.994534173228347
21
-5.3160278346456691
0
LINE
8
WHITE
6
CONTINUOUS
10
8.5150341732283454
20
-2.1600278346456694
11
7.973972165354331
21
-2.2750341732283466
0
LINE
8
WHITE
6
CONTINUOUS
10
7.973972165354331
20
-2.2750341732283466
11
7.8589658267716533
21
-1.7339721653543307
0
LINE
8
WHITE
6
CONTINUOUS
10
7.8589658267716533
20
-1.7339721653543307
11
8.4000278346456696
21
-1.6189658267716536
0
LINE
8
WHITE
6
CONTINUOUS
10
8.4000278346456696
20
-1.6189658267716536
11
8.5150341732283454
21
-2.1600278346456694
0
LINE
8
WHITE
6
CONTINUOUS
10
8.5270341732283459
20
-3.1160278346456693
11
7.9859721653543305
21
-3.2310341732283465
0
LINE
8
WHITE
6
CONTINUOUS
10
7.9859721653543305
20
-3.2310341732283465
11
7.8709658267716538
21
-2.6899721653543307
0
LINE
8
WHITE
6
CONTINUOUS
10
7.8709658267716538
20
-2.6899721653543307
11
8.4120278346456683
21
-2.5749658267716535
0
LINE
8
WHITE
6
CONTINUOUS
10
8.4120278346456683
20
-2.5749658267716535
11
8.5270341732283459
21
-3.1160278346456693
0
LINE
8
WHITE
6
CONTINUOUS
10
9.0485341732283455
20
-3.7710278346456692
11
8.507472165354331
21
-3.8860341732283463
0
LINE
8
WHITE
6
CONTINUOUS
10
8.507472165354331
20
-3.8860341732283463
11
8.3924658267716534
21
-3.3449721653543305
0
LINE
8
WHITE
6
CONTINUOUS
10
8.3924658267716534
20
-3.3449721653543305
11
8.9335278346456697
21
-3.2299658267716533
0
LINE
8
WHITE
6
CONTINUOUS
10
8.9335278346456697
20
-3.2299658267716533
11
9.0485341732283455
21
-3.7710278346456692
0
LINE
8
WHITE
6
CONTINUOUS
10
9.3885341732283454
20
-4.4645278346456694
11
8.8474721653543309
21
-4.5795341732283461
0
LINE
8
WHITE
6
CONTINUOUS
10
8.8474721653543309
20
-4.5795341732283461
11
8.7324658267716533
21
-4.0384721653543307
0
LINE
8
WHITE
6
CONTINUOUS
10
8.7324658267716533
20
-4.0384721653543307
11
9.2735278346456695
21
-3.9234658267716536
0
LINE
8
WHITE
6
CONTINUOUS
10
9.2735278346456695
20
-3.9234658267716536
11
9.3885341732283454
21
-4.4645278346456694
0
LINE
8
WHITE
6
CONTINUOUS
10
9.7275341732283458
20
-5.1600278346456694
11
9.1864721653543313
21
-5.2750341732283461
0
LINE
8
WHITE
6
CONTINUOUS
10
9.1864721653543313
20
-5.2750341732283461
11
9.0714658267716537
21
-4.7339721653543307
0
LINE
8
WHITE
6
CONTINUOUS
10
9.0714658267716537
20
-4.7339721653543307
11
9.61252783464567
21
-4.6189658267716531
0
LINE
8
WHITE
6
CONTINUOUS
10
9.61252783464567
20
-4.6189658267716531
11
9.7275341732283458
21
-5.1600278346456694
0
LINE
8
WHITE
6
CONTINUOUS
10
9.2595341732283458
20
-2.959527834645669
11
8.7184721653543313
21
-3.0745341732283462
0
LINE
8
WHITE
6
CONTINUOUS
10
8.7184721653543313
20
-3.0745341732283462
11
8.6034658267716537
21
-2.5334721653543308
0
LINE
8
WHITE
6
CONTINUOUS
10
8.6034658267716537
20
-2.5334721653543308
11
9.1445278346456682
21
-2.4184658267716537
0
LINE
8
WHITE
6
CONTINUOUS
10
9.1445278346456682
20
-2.4184658267716537
11
9.2595341732283458
21
-2.959527834645669
0
LINE
8
WHITE
6
CONTINUOUS
10
9.7820341732283467
20
-3.615027834645669
11
9.2409721653543304
21
-3.7300341732283462
0
LINE
8
WHITE
6
CONTINUOUS
10
9.2409721653543304
20
-3.7300341732283462
11
9.1259658267716528
21
-3.1889721653543308
0
LINE
8
WHITE
6
CONTINUOUS
10
9.1259658267716528
20
-3.1889721653543308
11
9.6670278346456691
21
-3.0739658267716536
0
LINE
8
WHITE
6
CONTINUOUS
10
9.6670278346456691
20
-3.0739658267716536
11
9.7820341732283467
21
-3.615027834645669
0
LINE
8
WHITE
6
CONTINUOUS
10
10.1210341732283471
20
-4.3095278346456691
11
9.5799721653543308
21
-4.4245341732283467
0
LINE
8
WHITE
6
CONTINUOUS
10
9.5799721653543308
20
-4.4245341732283467
11
9.4649658267716532
21
-3.8834721653543305
0
LINE
8
WHITE
6
CONTINUOUS
10
9.4649658267716532
20
-3.8834721653543305
11
10.0060278346456695
21
-3.7684658267716533
0
LINE
8
WHITE
6
CONTINUOUS
10
10.0060278346456695
20
-3.7684658267716533
11
10.1210341732283471
21
-4.3095278346456691
0
LINE
8
WHITE
6
CONTINUOUS
10
10.4615341732283458
20
-5.0040278346456688
11
9.9204721653543313
21
-5.1190341732283464
0
LINE
8
WHITE
6
CONTINUOUS
10
9.9204721653543313
20
-5.1190341732283464
11
9.8054658267716537
21
-4.577972165354331
0
LINE
8
WHITE
6
CONTINUOUS
10
9.8054658267716537
20
-4.577972165354331
11
10.3465278346456699
21
-4.4629658267716534
0
LINE
8
WHITE
6
CONTINUOUS
10
10.3465278346456699
20
-4.4629658267716534
11
10.4615341732283458
21
-5.0040278346456688
0
LINE
8
WHITE
6
CONTINUOUS
10
9.9940341732283464
20
-2.8045278346456692
11
9.4529721653543302
21
-2.9195341732283464
0
LINE
8
WHITE
6
CONTINUOUS
10
9.4529721653543302
20
-2.9195341732283464
11
9.3379658267716525
21
-2.3784721653543306
0
LINE
8
WHITE
6
CONTINUOUS
10
9.3379658267716525
20
-2.3784721653543306
11
9.8790278346456688
21
-2.2634658267716534
0
LINE
8
WHITE
6
CONTINUOUS
10
9.8790278346456688
20
-2.2634658267716534
11
9.9940341732283464
21
-2.8045278346456692
0
LINE
8
WHITE
6
CONTINUOUS
10
10.3372047244094478
20
-3.7079251968503937
11
10.8903543307086608
21
-3.7079251968503937
0
LINE
8
WHITE
6
CONTINUOUS
10
10.8903543307086608
20
-3.7079251968503937
11
10.8903543307086608
21
-4.2610748031496062
0
LINE
8
WHITE
6
CONTINUOUS
10
10.8903543307086608
20
-4.2610748031496062
11
10.3372047244094478
21
-4.2610748031496062
0
LINE
8
WHITE
6
CONTINUOUS
10
10.3372047244094478
20
-4.2610748031496062
11
10.3372047244094478
21
-3.7079251968503937
0
LINE
8
WHITE
6
CONTINUOUS
10
10.6984251968503941
20
-4.4569251968503938
11
11.2515748031496052
21
-4.4569251968503938
0
LINE
8
WHITE
6
CONTINUOUS
10
11.2515748031496052
20
-4.4569251968503938
11
11.2515748031496052
21
-5.0100748031496058
0
LINE
8
WHITE
6
CONTINUOUS
10
11.2515748031496052
20
-5.0100748031496058
11
10.6984251968503941
21
-5.0100748031496058
0
LINE
8
WHITE
6
CONTINUOUS
10
10.6984251968503941
20
-5.0100748031496058
11
10.6984251968503941
21
-4.4569251968503938
0
LINE
8
WHITE
6
CONTINUOUS
10
10.409251968503936
20
-1.2549212598425197
11
10.9624015748031489
21
-1.2549212598425197
0
LINE
8
WHITE
6
CONTINUOUS
10
10.9624015748031489
20
-1.2549212598425197
11
10.9624015748031489
21
-1.8080708661417322
0
LINE
8
WHITE
6
CONTINUOUS
10
10.9624015748031489
20
-1.8080708661417322
11
10.409251968503936
21
-1.8080708661417322
0
LINE
8
WHITE
6
CONTINUOUS
10
10.409251968503936
20
-1.8080708661417322
11
10.409251968503936
21
-1.2549212598425197
0
LINE
8
WHITE
6
CONTINUOUS
10
10.5166023622047238
20
-2.2027559055118111
11
11.0697519685039367
21
-2.2027559055118111
0
LINE
8
WHITE
6
CONTINUOUS
10
11.0697519685039367
20
-2.2027559055118111
11
11.0697519685039367
21
-2.7559055118110236
0
LINE
8
WHITE
6
CONTINUOUS
10
11.0697519685039367
20
-2.7559055118110236
11
10.5166023622047238
21
-2.7559055118110236
0
LINE
8
WHITE
6
CONTINUOUS
10
10.5166023622047238
20
-2.7559055118110236
11
10.5166023622047238
21
-2.2027559055118111
0
LINE
8
WHITE
6
CONTINUOUS
10
10.8946850393700778
20
-2.9569251968503938
11
11.4478346456692908
21
-2.9569251968503938
0
LINE
8
WHITE
6
CONTINUOUS
10
11.4478346456692908
20
-2.9569251968503938
11
11.4478346456692908
21
-3.5100748031496063
0
LINE
8
WHITE
6
CONTINUOUS
10
11.4478346456692908
20
-3.5100748031496063
11
10.8946850393700778
21
-3.5100748031496063
0
LINE
8
WHITE
6
CONTINUOUS
10
10.8946850393700778
20
-3.5100748031496063
11
10.8946850393700778
21
-2.9569251968503938
0
LINE
8
WHITE
6
CONTINUOUS
10
11.0872047244094478
20
-3.7079251968503937
11
11.6403543307086608
21
-3.7079251968503937
0
LINE
8
WHITE
6
CONTINUOUS
10
11.6403543307086608
20
-3.7079251968503937
11
11.6403543307086608
21
-4.2610748031496062
0
LINE
8
WHITE
6
CONTINUOUS
10
11.6403543307086608
20
-4.2610748031496062
11
11.0872047244094478
21
-4.2610748031496062
0
LINE
8
WHITE
6
CONTINUOUS
10
11.0872047244094478
20
-4.2610748031496062
11
11.0872047244094478
21
-3.7079251968503937
0
LINE
8
WHITE
6
CONTINUOUS
10
11.4557086614173222
20
-4.4574251968503935
11
12.0088582677165352
21
-4.4574251968503935
0
LINE
8
WHITE
6
CONTINUOUS
10
12.0088582677165352
20
-4.4574251968503935
11
12.0088582677165352
21
-5.0105748031496065
0
LINE
8
WHITE
6
CONTINUOUS
10
12.0088582677165352
20
-5.0105748031496065
11
11.4557086614173222
21
-5.0105748031496065
0
LINE
8
WHITE
6
CONTINUOUS
10
11.4557086614173222
20
-5.0105748031496065
11
11.4557086614173222
21
-4.4574251968503935
0
LINE
8
WHITE
6
CONTINUOUS
10
11.1597519685039366
20
-1.2549212598425197
11
11.7129015748031495
21
-1.2549212598425197
0
LINE
8
WHITE
6
CONTINUOUS
10
11.7129015748031495
20
-1.2549212598425197
11
11.7129015748031495
21
-1.8080708661417322
0
LINE
8
WHITE
6
CONTINUOUS
10
11.7129015748031495
20
-1.8080708661417322
11
11.1597519685039366
21
-1.8080708661417322
0
LINE
8
WHITE
6
CONTINUOUS
10
11.1597519685039366
20
-1.8080708661417322
11
11.1597519685039366
21
-1.2549212598425197
0
LINE
8
WHITE
6
CONTINUOUS
10
11.2730708661417314
20
-2.2027401574803149
11
11.8262204724409443
21
-2.2027401574803149
0
LINE
8
WHITE
6
CONTINUOUS
10
11.8262204724409443
20
-2.2027401574803149
11
11.8262204724409443
21
-2.7558897637795274
0
LINE
8
WHITE
6
CONTINUOUS
10
11.8262204724409443
20
-2.7558897637795274
11
11.2730708661417314
21
-2.7558897637795274
0
LINE
8
WHITE
6
CONTINUOUS
10
11.2730708661417314
20
-2.7558897637795274
11
11.2730708661417314
21
-2.2027401574803149
0
LINE
8
WHITE
6
CONTINUOUS
10
11.6427165354330704
20
-2.9569251968503938
11
12.1958661417322833
21
-2.9569251968503938
0
LINE
8
WHITE
6
CONTINUOUS
10
12.1958661417322833
20
-2.9569251968503938
11
12.1958661417322833
21
-3.5100748031496063
0
LINE
8
WHITE
6
CONTINUOUS
10
12.1958661417322833
20
-3.5100748031496063
11
11.6427165354330704
21
-3.5100748031496063
0
LINE
8
WHITE
6
CONTINUOUS
10
11.6427165354330704
20
-3.5100748031496063
11
11.6427165354330704
21
-2.9569251968503938
0
LINE
8
WHITE
6
CONTINUOUS
10
11.4571771653543308
20
-5.215551181102362
11
12.0103267716535438
21
-5.215551181102362
0
LINE
8
WHITE
6
CONTINUOUS
10
12.0103267716535438
20
-5.215551181102362
11
12.0103267716535438
21
-5.768700787401575
0
LINE
8
WHITE
6
CONTINUOUS
10
12.0103267716535438
20
-5.768700787401575
11
11.4571771653543308
21
-5.768700787401575
0
LINE
8
WHITE
6
CONTINUOUS
10
11.4571771653543308
20
-5.768700787401575
11
11.4571771653543308
21
-5.215551181102362
0
LINE
8
WHITE
6
CONTINUOUS
10
12.2076771653543297
20
-4.4596456692913389
11
12.7608267716535426
21
-4.4596456692913389
0
LINE
8
WHITE
6
CONTINUOUS
10
12.7608267716535426
20
-4.4596456692913389
11
12.7608267716535426
21
-5.0127952755905509
0
LINE
8
WHITE
6
CONTINUOUS
10
12.7608267716535426
20
-5.0127952755905509
11
12.2076771653543297
21
-5.0127952755905509
0
LINE
8
WHITE
6
CONTINUOUS
10
12.2076771653543297
20
-5.0127952755905509
11
12.2076771653543297
21
-4.4596456692913389
0
LINE
8
WHITE
6
CONTINUOUS
10
12.2076771653543297
20
-5.215551181102362
11
12.7608267716535426
21
-5.215551181102362
0
LINE
8
WHITE
6
CONTINUOUS
10
12.7608267716535426
20
-5.215551181102362
11
12.7608267716535426
21
-5.768700787401575
0
LINE
8
WHITE
6
CONTINUOUS
10
12.7608267716535426
20
-5.768700787401575
11
12.2076771653543297
21
-5.768700787401575
0
LINE
8
WHITE
6
CONTINUOUS
10
12.2076771653543297
20
-5.768700787401575
11
12.2076771653543297
21
-5.215551181102362
0
LINE
8
WHITE
6
CONTINUOUS
10
11.9397913385826762
20
-1.2551102362204725
11
12.4929409448818891
21
-1.2551102362204725
0
LINE
8
WHITE
6
CONTINUOUS
10
12.4929409448818891
20
-1.2551102362204725
11
12.4929409448818891
21
-1.808259842519685
0
LINE
8
WHITE
6
CONTINUOUS
10
12.4929409448818891
20
-1.808259842519685
11
11.9397913385826762
21
-1.808259842519685
0
LINE
8
WHITE
6
CONTINUOUS
10
11.9397913385826762
20
-1.808259842519685
11
11.9397913385826762
21
-1.2551102362204725
0
LINE
8
WHITE
6
CONTINUOUS
10
4.9665459842519688
20
-4.7810548425196853
11
4.8515396456692912
21
-5.3221168503937006
0
LINE
8
WHITE
6
CONTINUOUS
10
4.8515396456692912
20
-5.3221168503937006
11
4.3104776377952758
21
-5.2071105118110239
0
LINE
8
WHITE
6
CONTINUOUS
10
4.3104776377952758
20
-5.2071105118110239
11
4.4254839763779525
21
-4.6660485039370077
0
LINE
8
WHITE
6
CONTINUOUS
10
4.4254839763779525
20
-4.6660485039370077
11
4.9665459842519688
21
-4.7810548425196853
0
LINE
8
WHITE
6
CONTINUOUS
10
5.0465341732283466
20
-1.5389721653543307
11
4.931527834645669
21
-2.0800341732283463
0
LINE
8
WHITE
6
CONTINUOUS
10
4.931527834645669
20
-2.0800341732283463
11
4.3904658267716536
21
-1.9650278346456693
0
LINE
8
WHITE
6
CONTINUOUS
10
4.3904658267716536
20
-1.9650278346456693
11
4.5054721653543304
21
-1.4239658267716535
0
LINE
8
WHITE
6
CONTINUOUS
10
4.5054721653543304
20
-1.4239658267716535
11
5.0465341732283466
21
-1.5389721653543307
0
CIRCLE
8
WHITE
10
13.2699999999999996
20
-1.9199999999999999
40
0.1259842519685039
0
LINE
8
WHITE
6
CONTINUOUS
10
10.1650341732283458
20
-1.8090278346456692
11
9.6239721653543313
21
-1.9240341732283464
0
LINE
8
WHITE
6
CONTINUOUS
10
9.6239721653543313
20
-1.9240341732283464
11
9.5089658267716537
21
-1.3829721653543308
0
LINE
8
WHITE
6
CONTINUOUS
10
9.5089658267716537
20
-1.3829721653543308
11
10.0500278346456682
21
-1.2679658267716536
0
LINE
8
WHITE
6
CONTINUOUS
10
10.0500278346456682
20
-1.2679658267716536
11
10.1650341732283458
21
-1.8090278346456692
0
LINE
8
WHITE
6
CONTINUOUS
10
9.4315341732283464
20
-1.9650278346456693
11
8.8904721653543302
21
-2.0800341732283463
0
LINE
8
WHITE
6
CONTINUOUS
10
8.8904721653543302
20
-2.0800341732283463
11
8.7754658267716525
21
-1.5389721653543307
0
LINE
8
WHITE
6
CONTINUOUS
10
8.7754658267716525
20
-1.5389721653543307
11
9.3165278346456688
21
-1.4239658267716535
0
LINE
8
WHITE
6
CONTINUOUS
10
9.3165278346456688
20
-1.4239658267716535
11
9.4315341732283464
21
-1.9650278346456693
0
CIRCLE
8
WHITE
10
4.7952755905511806
20
-1.1299212598425197
40
0.1259842519685039
0
LINE
8
WHITE
6
CONTINUOUS
10
4.2335459842519683
20
-4.6255548425196853
11
4.1185396456692915
21
-5.1666168503937007
0
LINE
8
WHITE
6
CONTINUOUS
10
4.1185396456692915
20
-5.1666168503937007
11
3.5774776377952757
21
-5.0516105118110239
0
LINE
8
WHITE
6
CONTINUOUS
10
3.5774776377952757
20
-5.0516105118110239
11
3.6924839763779529
21
-4.5105485039370077
0
LINE
8
WHITE
6
CONTINUOUS
10
3.6924839763779529
20
-4.5105485039370077
11
4.2335459842519683
21
-4.6255548425196853
0
LINE
8
WHITE
6
CONTINUOUS
10
10.515534173228346
20
-3.459527834645669
11
9.9744721653543298
21
-3.5745341732283462
0
LINE
8
WHITE
6
CONTINUOUS
10
9.9744721653543298
20
-3.5745341732283462
11
9.859465826771654
21
-3.0334721653543308
0
LINE
8
WHITE
6
CONTINUOUS
10
9.859465826771654
20
-3.0334721653543308
11
10.4005278346456684
21
-2.9184658267716537
0
LINE
8
WHITE
6
CONTINUOUS
10
10.4005278346456684
20
-2.9184658267716537
11
10.515534173228346
21
-3.459527834645669
0
CIRCLE
8
WHITE
10
7.0354330708661417
20
-5.8700787401574805
40
0.1259842519685039
0
LINE
8
WHITE
6
CONTINUOUS
10
12.9604330708661415
20
-5.215551181102362
11
13.5135826771653544
21
-5.215551181102362
0
LINE
8
WHITE
6
CONTINUOUS
10
13.5135826771653544
20
-5.215551181102362
11
13.5135826771653544
21
-5.768700787401575
0
LINE
8
WHITE
6
CONTINUOUS
10
13.5135826771653544
20
-5.768700787401575
11
12.9604330708661415
21
-5.768700787401575
0
LINE
8
WHITE
6
CONTINUOUS
10
12.9604330708661415
20
-5.768700787401575
11
12.9604330708661415
21
-5.215551181102362
0
CIRCLE
8
WHITE
10
6.7204724409448815
20
-4.3661417322834648
40
0.1259842519685039
0
LINE
8
WHITE
6
CONTINUOUS
10
2.0624015748031495
20
-4.4572834645669293
11
2.615551181102362
21
-4.4572834645669293
0
LINE
8
WHITE
6
CONTINUOUS
10
2.615551181102362
20
-4.4572834645669293
11
2.615551181102362
21
-5.0104330708661413
0
LINE
8
WHITE
6
CONTINUOUS
10
2.615551181102362
20
-5.0104330708661413
11
2.0624015748031495
21
-5.0104330708661413
0
LINE
8
WHITE
6
CONTINUOUS
10
2.0624015748031495
20
-5.0104330708661413
11
2.0624015748031495
21
-4.4572834645669293
0
LINE
8
WHITE
6
CONTINUOUS
10
12.9604330708661415
20
-4.4596456692913389
11
13.5135826771653544
21
-4.4596456692913389
0
LINE
8
WHITE
6
CONTINUOUS
10
13.5135826771653544
20
-4.4596456692913389
11
13.5135826771653544
21
-5.0127952755905509
0
LINE
8
WHITE
6
CONTINUOUS
10
13.5135826771653544
20
-5.0127952755905509
11
12.9604330708661415
21
-5.0127952755905509
0
LINE
8
WHITE
6
CONTINUOUS
10
12.9604330708661415
20
-5.0127952755905509
11
12.9604330708661415
21
-4.4596456692913389
0
LINE
8
WHITE
6
CONTINUOUS
10
11.8383858267716526
20
-3.7076771653543306
11
12.3915354330708656
21
-3.7076771653543306
0
LINE
8
WHITE
6
CONTINUOUS
10
12.3915354330708656
20
-3.7076771653543306
11
12.3915354330708656
21
-4.2608267716535435
0
LINE
8
WHITE
6
CONTINUOUS
10
12.3915354330708656
20
-4.2608267716535435
11
11.8383858267716526
21
-4.2608267716535435
0
LINE
8
WHITE
6
CONTINUOUS
10
11.8383858267716526
20
-4.2608267716535435
11
11.8383858267716526
21
-3.7076771653543306
0
CIRCLE
8
BLACK
10
2.1811023622047245
20
-5.2625984251968498
40
0.0629920866141732
0
CIRCLE
8
BLACK
10
9.0233379921259846
20
-1.0997050787401574
40
0.0629920866141732
0
CIRCLE
8
BLACK
10
9.4749999999999996
20
-5.6899999999999995
40
0.0629920866141732
0
CIRCLE
8
BLACK
10
12.9221456692913375
20
-5.1875866141732283
40
0.0629920866141732
0
CIRCLE
8
BLACK
10
2.2399999999999998
20
-2.8599999999999999
40
0.0629920866141732
0
CIRCLE
8
BLACK
10
4.3999999999999995
20
-5.71
40
0.0629920866141732
0
CIRCLE
8
BLACK
10
2.8905511811023623
20
-4.7335000000000003
40
0.0344487795275591
0
CIRCLE
8
BLACK
10
3.090551181102362
20
-4.7335000000000003
40
0.0784999606299213
0
CIRCLE
8
BLACK
10
3.2905511811023622
20
-4.7335000000000003
40
0.0344487795275591
0
CIRCLE
8
BLACK
10
2.740551181102362
20
-4.6034999999999995
40
0.0078740157480315
0
CIRCLE
8
BLACK
10
2.740551181102362
20
-4.6635
40
0.0078740157480315
0
CIRCLE
8
BLACK
10
2.9405511811023621
20
-4.6334999999999997
40
0.0590551181102362
0
CIRCLE
8
BLACK
10
3.1905511811023621
20
-4.5335000000000001
40
0.0590551181102362
0
CIRCLE
8
BLACK
10
3.3905511811023623
20
-4.5034999999999998
40
0.0078740157480315
0
CIRCLE
8
BLACK
10
3.3905511811023623
20
-4.5635000000000003
40
0.0078740157480315
0
CIRCLE
8
BLACK
10
1.2735000000000001
20
-1.5469999999999999
40
0.0344487795275591
0
CIRCLE
8
BLACK
10
1.4735
20
-1.5469999999999999
40
0.0784999606299213
0
CIRCLE
8
BLACK
10
1.6735
20
-1.5469999999999999
40
0.0344487795275591
0
CIRCLE
8
BLACK
10
1.1234999999999999
20
-1.417
40
0.0078740157480315
0
CIRCLE
8
BLACK
10
1.1234999999999999
20
-1.4769999999999999
40
0.0078740157480315
0
CIRCLE
8
BLACK
10
1.3234999999999999
20
-1.4470000000000001
40
0.0590551181102362
0
CIRCLE
8
BLACK
10
1.5734999999999999
20
-1.347
40
0.0590551181102362
0
CIRCLE
8
BLACK
10
1.7734999999999999
20
-1.3169999999999999
40
0.0078740157480315
0
CIRCLE
8
BLACK
10
1.7734999999999999
20
-1.377
40
0.0078740157480315
0
CIRCLE
8
BLACK
10
1.6655
20
-2.484
40
0.0344487795275591
0
CIRCLE
8
BLACK
10
1.8654999999999999
20
-2.484
40
0.0784999606299213
0
CIRCLE
8
BLACK
10
2.0655000000000001
20
-2.484
40
0.0344487795275591
0
CIRCLE
8
BLACK
10
1.5155000000000001
20
-2.3540000000000001
40
0.0078740157480315
0
CIRCLE
8
BLACK
10
1.5155000000000001
20
-2.4140000000000001
40
0.0078740157480315
0
CIRCLE
8
BLACK
10
1.7155
20
-2.3839999999999999
40
0.0590551181102362
0
CIRCLE
8
BLACK
10
1.9655
20
-2.2839999999999998
40
0.0590551181102362
0
CIRCLE
8
BLACK
10
2.1654999999999998
20
-2.254
40
0.0078740157480315
0
CIRCLE
8
BLACK
10
2.1654999999999998
20
-2.3140000000000001
40
0.0078740157480315
0
CIRCLE
8
BLACK
10
1.2960629921259843
20
-4.734
40
0.0344487795275591
0
CIRCLE
8
BLACK
10
1.4960629921259843
20
-4.734
40
0.0784999606299213
0
CIRCLE
8
BLACK
10
1.6960629921259842
20
-4.734
40
0.0344487795275591
0
CIRCLE
8
BLACK
10
1.1460629921259842
20
-4.6040000000000001
40
0.0078740157480315
0
CIRCLE
8
BLACK
10
1.1460629921259842
20
-4.6639999999999997
40
0.0078740157480315
0
CIRCLE
8
BLACK
10
1.3460629921259841
20
-4.6339999999999995
40
0.0590551181102362
0
CIRCLE
8
BLACK
10
1.5960629921259841
20
-4.5339999999999998
40
0.0590551181102362
0
CIRCLE
8
BLACK
10
1.7960629921259843
20
-4.5039999999999996
40
0.0078740157480315
0
CIRCLE
8
BLACK
10
1.7960629921259843
20
-4.5640000000000001
40
0.0078740157480315
0
CIRCLE
8
BLACK
10
1.3659999999999999
20
-5.484
40
0.0344487795275591
0
CIRCLE
8
BLACK
10
1.5660000000000001
20
-5.484
40
0.0784999606299213
0
CIRCLE
8
BLACK
10
1.766
20
-5.484
40
0.0344487795275591
0
CIRCLE
8
BLACK
10
1.216
20
-5.3540000000000001
40
0.0078740157480315
0
CIRCLE
8
BLACK
10
1.216
20
-5.4139999999999997
40
0.0078740157480315
0
CIRCLE
8
BLACK
10
1.4159999999999999
20
-5.3839999999999995
40
0.0590551181102362
0
CIRCLE
8
BLACK
10
1.6659999999999999
20
-5.2839999999999998
40
0.0590551181102362
0
CIRCLE
8
BLACK
10
1.8659999999999999
20
-5.2539999999999996
40
0.0078740157480315
0
CIRCLE
8
BLACK
10
1.8659999999999999
20
-5.3140000000000001
40
0.0078740157480315
0
CIRCLE
8
BLACK
10
2.2159999999999997
20
-1.4875
40
0.0344487795275591
0
CIRCLE
8
BLACK
10
2.4159999999999999
20
-1.4875
40
0.0784999606299213
0
CIRCLE
8
BLACK
10
2.6160000000000001
20
-1.4875
40
0.0344487795275591
0
CIRCLE
8
BLACK
10
2.0659999999999998
20
-1.3574999999999999
40
0.0078740157480315
0
CIRCLE
8
BLACK
10
2.0659999999999998
20
-1.4175
40
0.0078740157480315
0
CIRCLE
8
BLACK
10
2.266
20
-1.3875
40
0.0590551181102362
0
CIRCLE
8
BLACK
10
2.516
20
-1.2874999999999999
40
0.0590551181102362
0
CIRCLE
8
BLACK
10
2.7159999999999997
20
-1.2575000000000001
40
0.0078740157480315
0
CIRCLE
8
BLACK
10
2.7159999999999997
20
-1.3174999999999999
40
0.0078740157480315
0
CIRCLE
8
BLACK
10
2.415683779527559
20
-2.484
40
0.0344487795275591
0
CIRCLE
8
BLACK
10
2.6156837795275591
20
-2.484
40
0.0784999606299213
0
CIRCLE
8
BLACK
10
2.8156837795275589
20
-2.484
40
0.0344487795275591
0
CIRCLE
8
BLACK
10
2.2656837795275591
20
-2.3540000000000001
40
0.0078740157480315
0
CIRCLE
8
BLACK
10
2.2656837795275591
20
-2.4140000000000001
40
0.0078740157480315
0
CIRCLE
8
BLACK
10
2.4656837795275588
20
-2.3839999999999999
40
0.0590551181102362
0
CIRCLE
8
BLACK
10
2.7156837795275588
20
-2.2839999999999998
40
0.0590551181102362
0
CIRCLE
8
BLACK
10
2.915683779527559
20
-2.254
40
0.0078740157480315
0
CIRCLE
8
BLACK
10
2.915683779527559
20
-2.3140000000000001
40
0.0078740157480315
0
CIRCLE
8
BLACK
10
2.6265000000000001
20
-3.234
40
0.0344487795275591
0
CIRCLE
8
BLACK
10
2.8264999999999998
20
-3.234
40
0.0784999606299213
0
CIRCLE
8
BLACK
10
3.0265
20
-3.234
40
0.0344487795275591
0
CIRCLE
8
BLACK
10
2.4765000000000001
20
-3.1040000000000001
40
0.0078740157480315
0
CIRCLE
8
BLACK
10
2.4765000000000001
20
-3.1640000000000001
40
0.0078740157480315
0
CIRCLE
8
BLACK
10
2.6764999999999999
20
-3.1339999999999999
40
0.0590551181102362
0
CIRCLE
8
BLACK
10
2.9264999999999999
20
-3.0339999999999998
40
0.0590551181102362
0
CIRCLE
8
BLACK
10
3.1265000000000001
20
-3.004
40
0.0078740157480315
0
CIRCLE
8
BLACK
10
3.1265000000000001
20
-3.0640000000000001
40
0.0078740157480315
0
CIRCLE
8
BLACK
10
2.653
20
-3.984
40
0.0344487795275591
0
CIRCLE
8
BLACK
10
2.8529999999999998
20
-3.984
40
0.0784999606299213
0
CIRCLE
8
BLACK
10
3.0529999999999999
20
-3.984
40
0.0344487795275591
0
CIRCLE
8
BLACK
10
2.5030000000000001
20
-3.8540000000000001
40
0.0078740157480315
0
CIRCLE
8
BLACK
10
2.5030000000000001
20
-3.9139999999999997
40
0.0078740157480315
0
CIRCLE
8
BLACK
10
2.7029999999999998
20
-3.8839999999999999
40
0.0590551181102362
0
CIRCLE
8
BLACK
10
2.9529999999999998
20
-3.7839999999999998
40
0.0590551181102362
0
CIRCLE
8
BLACK
10
3.153
20
-3.754
40
0.0078740157480315
0
CIRCLE
8
BLACK
10
3.153
20
-3.8140000000000001
40
0.0078740157480315
0
CIRCLE
8
BLACK
10
2.9664999999999999
20
-1.4869999999999999
40
0.0344487795275591
0
CIRCLE
8
BLACK
10
3.1665000000000001
20
-1.4869999999999999
40
0.0784999606299213
0
CIRCLE
8
BLACK
10
3.3664999999999998
20
-1.4869999999999999
40
0.0344487795275591
0
CIRCLE
8
BLACK
10
2.8165
20
-1.357
40
0.0078740157480315
0
CIRCLE
8
BLACK
10
2.8165
20
-1.417
40
0.0078740157480315
0
CIRCLE
8
BLACK
10
3.0164999999999997
20
-1.387
40
0.0590551181102362
0
CIRCLE
8
BLACK
10
3.2664999999999997
20
-1.2869999999999999
40
0.0590551181102362
0
CIRCLE
8
BLACK
10
3.4664999999999999
20
-1.2569999999999999
40
0.0078740157480315
0
CIRCLE
8
BLACK
10
3.4664999999999999
20
-1.3169999999999999
40
0.0078740157480315
0
CIRCLE
8
BLACK
10
3.1654999999999998
20
-2.4255
40
0.0344487795275591
0
CIRCLE
8
BLACK
10
3.3654999999999999
20
-2.4255
40
0.0784999606299213
0
CIRCLE
8
BLACK
10
3.5655000000000001
20
-2.4255
40
0.0344487795275591
0
CIRCLE
8
BLACK
10
3.0154999999999998
20
-2.2955000000000001
40
0.0078740157480315
0
CIRCLE
8
BLACK
10
3.0154999999999998
20
-2.3555000000000001
40
0.0078740157480315
0
CIRCLE
8
BLACK
10
3.2155
20
-2.3254999999999999
40
0.0590551181102362
0
CIRCLE
8
BLACK
10
3.4655
20
-2.2254999999999998
40
0.0590551181102362
0
CIRCLE
8
BLACK
10
3.6654999999999998
20
-2.1955
40
0.0078740157480315
0
CIRCLE
8
BLACK
10
3.6654999999999998
20
-2.2555000000000001
40
0.0078740157480315
0
CIRCLE
8
BLACK
10
3.4378704724409448
20
-3.2054176771653542
40
0.0344487795275591
0
CIRCLE
8
BLACK
10
3.6334999999999997
20
-3.2469999999999999
40
0.0784999606299213
0
CIRCLE
8
BLACK
10
3.8291295275590551
20
-3.2885823228346456
40
0.0344487795275591
0
CIRCLE
8
BLACK
10
3.3181768503937006
20
-3.0470717322834644
40
0.0078740157480315
0
CIRCLE
8
BLACK
10
3.3057021653543308
20
-3.1057605905511809
40
0.0078740157480315
0
CIRCLE
8
BLACK
10
3.5075690157480315
20
-3.1179985433070865
40
0.0590551181102362
0
CIRCLE
8
BLACK
10
3.7728970866141731
20
-3.0721616535433069
40
0.0590551181102362
0
CIRCLE
8
BLACK
10
3.9747639763779525
20
-3.0843995669291338
40
0.0078740157480315
0
CIRCLE
8
BLACK
10
3.962289251968504
20
-3.1430884251968503
40
0.0078740157480315
0
CIRCLE
8
BLACK
10
3.4653704724409446
20
-3.9784176771653543
40
0.0344487795275591
0
CIRCLE
8
BLACK
10
3.661
20
-4.0199999999999996
40
0.0784999606299213
0
CIRCLE
8
BLACK
10
3.856629527559055
20
-4.0615823228346457
40
0.0344487795275591
0
CIRCLE
8
BLACK
10
3.3456768503937009
20
-3.8200717322834645
40
0.0078740157480315
0
CIRCLE
8
BLACK
10
3.3332021653543307
20
-3.8787605905511811
40
0.0078740157480315
0
CIRCLE
8
BLACK
10
3.5350690157480313
20
-3.8909985433070866
40
0.0590551181102362
0
CIRCLE
8
BLACK
10
3.800397086614173
20
-3.8451616535433071
40
0.0590551181102362
0
CIRCLE
8
BLACK
10
4.0022639763779528
20
-3.8573995669291339
40
0.0078740157480315
0
CIRCLE
8
BLACK
10
3.9897892519685039
20
-3.9160884251968504
40
0.0078740157480315
0
CIRCLE
8
BLACK
10
3.7033704724409446
20
-5.5619176771653542
40
0.0344487795275591
0
CIRCLE
8
BLACK
10
3.899
20
-5.6034999999999995
40
0.0784999606299213
0
CIRCLE
8
BLACK
10
4.0946295275590554
20
-5.6450823228346456
40
0.0344487795275591
0
CIRCLE
8
BLACK
10
3.5836768503937009
20
-5.4035717322834644
40
0.0078740157480315
0
CIRCLE
8
BLACK
10
3.5712021653543307
20
-5.462260590551181
40
0.0078740157480315
0
CIRCLE
8
BLACK
10
3.7730690157480313
20
-5.4744985433070861
40
0.0590551181102362
0
CIRCLE
8
BLACK
10
4.0383970866141734
20
-5.4286616535433065
40
0.0590551181102362
0
CIRCLE
8
BLACK
10
4.2402639763779524
20
-5.4408995669291338
40
0.0078740157480315
0
CIRCLE
8
BLACK
10
4.2277892519685034
20
-5.4995884251968503
40
0.0078740157480315
0
CIRCLE
8
BLACK
10
3.7898704724409447
20
-1.5549176771653543
40
0.0344487795275591
0
CIRCLE
8
BLACK
10
3.9855
20
-1.5965
40
0.0784999606299213
0
CIRCLE
8
BLACK
10
4.1811295275590554
20
-1.6380823228346457
40
0.0344487795275591
0
CIRCLE
8
BLACK
10
3.6701768503937009
20
-1.3965717322834645
40
0.0078740157480315
0
CIRCLE
8
BLACK
10
3.6577021653543307
20
-1.4552605905511811
40
0.0078740157480315
0
CIRCLE
8
BLACK
10
3.8595690157480314
20
-1.4674985433070866
40
0.0590551181102362
0
CIRCLE
8
BLACK
10
4.1248970866141734
20
-1.4216616535433071
40
0.0590551181102362
0
CIRCLE
8
BLACK
10
4.3267639763779524
20
-1.4338995669291339
40
0.0078740157480315
0
CIRCLE
8
BLACK
10
4.3142892519685034
20
-1.4925884251968504
40
0.0078740157480315
0
CIRCLE
8
BLACK
10
3.9608704724409449
20
-2.5494176771653541
40
0.0344487795275591
0
CIRCLE
8
BLACK
10
4.1565000000000003
20
-2.5909999999999997
40
0.0784999606299213
0
CIRCLE
8
BLACK
10
4.3521295275590548
20
-2.6325823228346454
40
0.0344487795275591
0
CIRCLE
8
BLACK
10
3.8411768503937007
20
-2.3910717322834647
40
0.0078740157480315
0
CIRCLE
8
BLACK
10
3.8287021653543305
20
-2.4497605905511812
40
0.0078740157480315
0
CIRCLE
8
BLACK
10
4.0305690157480312
20
-2.4619985433070863
40
0.0590551181102362
0
CIRCLE
8
BLACK
10
4.2958970866141728
20
-2.4161616535433073
40
0.0590551181102362
0
CIRCLE
8
BLACK
10
4.4977639763779527
20
-2.4283995669291336
40
0.0078740157480315
0
CIRCLE
8
BLACK
10
4.4852892519685037
20
-2.4870884251968501
40
0.0078740157480315
0
CIRCLE
8
BLACK
10
4.1713704724409446
20
-3.3614176771653543
40
0.0344487795275591
0
CIRCLE
8
BLACK
10
4.367
20
-3.403
40
0.0784999606299213
0
CIRCLE
8
BLACK
10
4.5626295275590554
20
-3.4445823228346457
40
0.0344487795275591
0
CIRCLE
8
BLACK
10
4.0516768503937008
20
-3.2030717322834645
40
0.0078740157480315
0
CIRCLE
8
BLACK
10
4.0392021653543306
20
-3.2617605905511811
40
0.0078740157480315
0
CIRCLE
8
BLACK
10
4.2410690157480317
20
-3.2739985433070866
40
0.0590551181102362
0
CIRCLE
8
BLACK
10
4.5063970866141734
20
-3.2281616535433071
40
0.0590551181102362
0
CIRCLE
8
BLACK
10
4.7082639763779524
20
-3.2403995669291339
40
0.0078740157480315
0
CIRCLE
8
BLACK
10
4.6957892519685034
20
-3.2990884251968504
40
0.0078740157480315
0
CIRCLE
8
BLACK
10
4.1988704724409445
20
-4.134417677165354
40
0.0344487795275591
0
CIRCLE
8
BLACK
10
4.3944999999999999
20
-4.1760000000000002
40
0.0784999606299213
0
CIRCLE
8
BLACK
10
4.5901295275590552
20
-4.2175823228346454
40
0.0344487795275591
0
CIRCLE
8
BLACK
10
4.0791768503937007
20
-3.9760717322834647
40
0.0078740157480315
0
CIRCLE
8
BLACK
10
4.0667021653543305
20
-4.0347605905511807
40
0.0078740157480315
0
CIRCLE
8
BLACK
10
4.2685690157480316
20
-4.0469985433070867
40
0.0590551181102362
0
CIRCLE
8
BLACK
10
4.5338970866141732
20
-4.0011616535433072
40
0.0590551181102362
0
CIRCLE
8
BLACK
10
4.7357639763779522
20
-4.0133995669291336
40
0.0078740157480315
0
CIRCLE
8
BLACK
10
4.7232892519685041
20
-4.0720884251968501
40
0.0078740157480315
0
CIRCLE
8
BLACK
10
4.6943704724409452
20
-2.7059176771653544
40
0.0344487795275591
0
CIRCLE
8
BLACK
10
4.8899999999999997
20
-2.7475000000000001
40
0.0784999606299213
0
CIRCLE
8
BLACK
10
5.0856295275590551
20
-2.7890823228346457
40
0.0344487795275591
0
CIRCLE
8
BLACK
10
4.5746768503937005
20
-2.5475717322834646
40
0.0078740157480315
0
CIRCLE
8
BLACK
10
4.5622021653543303
20
-2.6062605905511811
40
0.0078740157480315
0
CIRCLE
8
BLACK
10
4.7640690157480314
20
-2.6184985433070866
40
0.0590551181102362
0
CIRCLE
8
BLACK
10
5.0293970866141731
20
-2.5726616535433071
40
0.0590551181102362
0
CIRCLE
8
BLACK
10
5.2312639763779529
20
-2.5848995669291339
40
0.0078740157480315
0
CIRCLE
8
BLACK
10
5.218789251968504
20
-2.6435884251968504
40
0.0078740157480315
0
CIRCLE
8
BLACK
10
4.9043704724409452
20
-3.5179176771653542
40
0.0344487795275591
0
CIRCLE
8
BLACK
10
5.0999999999999996
20
-3.5594999999999999
40
0.0784999606299213
0
CIRCLE
8
BLACK
10
5.295629527559055
20
-3.6010823228346456
40
0.0344487795275591
0
CIRCLE
8
BLACK
10
4.7846768503937005
20
-3.3595717322834644
40
0.0078740157480315
0
CIRCLE
8
BLACK
10
4.7722021653543303
20
-3.4182605905511809
40
0.0078740157480315
0
CIRCLE
8
BLACK
10
4.9740690157480314
20
-3.4304985433070865
40
0.0590551181102362
0
CIRCLE
8
BLACK
10
5.239397086614173
20
-3.3846616535433069
40
0.0590551181102362
0
CIRCLE
8
BLACK
10
5.4412639763779529
20
-3.3968995669291338
40
0.0078740157480315
0
CIRCLE
8
BLACK
10
5.4287892519685039
20
-3.4555884251968503
40
0.0078740157480315
0
CIRCLE
8
BLACK
10
4.9308704724409447
20
-4.2889176771653545
40
0.0344487795275591
0
CIRCLE
8
BLACK
10
5.1265000000000001
20
-4.3304999999999998
40
0.0784999606299213
0
CIRCLE
8
BLACK
10
5.3221295275590554
20
-4.3720823228346459
40
0.0344487795275591
0
CIRCLE
8
BLACK
10
4.8111768503937009
20
-4.1305717322834647
40
0.0078740157480315
0
CIRCLE
8
BLACK
10
4.7987021653543307
20
-4.1892605905511813
40
0.0078740157480315
0
CIRCLE
8
BLACK
10
5.0005690157480318
20
-4.2014985433070864
40
0.0590551181102362
0
CIRCLE
8
BLACK
10
5.2658970866141734
20
-4.1556616535433069
40
0.0590551181102362
0
CIRCLE
8
BLACK
10
5.4677639763779524
20
-4.1678995669291341
40
0.0078740157480315
0
CIRCLE
8
BLACK
10
5.4552892519685035
20
-4.2265884251968506
40
0.0078740157480315
0
CIRCLE
8
BLACK
10
5.1768822834645665
20
-5.1085003543307081
40
0.0344487795275591
0
CIRCLE
8
BLACK
10
5.3725118110236219
20
-5.1500826771653543
40
0.0784999606299213
0
CIRCLE
8
BLACK
10
5.5681413385826772
20
-5.1916649999999995
40
0.0344487795275591
0
CIRCLE
8
BLACK
10
5.0571886614173227
20
-4.9501544094488183
40
0.0078740157480315
0
CIRCLE
8
BLACK
10
5.0447139763779525
20
-5.0088432677165358
40
0.0078740157480315
0
CIRCLE
8
BLACK
10
5.2465808267716536
20
-5.0210812204724409
40
0.0590551181102362
0
CIRCLE
8
BLACK
10
5.5119088976377952
20
-4.9752443307086613
40
0.0590551181102362
0
CIRCLE
8
BLACK
10
5.7137757874015751
20
-4.9874822440944877
40
0.0078740157480315
0
CIRCLE
8
BLACK
10
5.7013010629921261
20
-5.0461711023622042
40
0.0078740157480315
0
CIRCLE
8
BLACK
10
4.7903423228346451
20
-5.4608816141732284
40
0.0784999606299213
0
CIRCLE
8
BLACK
10
4.6655953149606297
20
-6.0477701574803149
40
0.0599999606299213
0
CIRCLE
8
BLACK
10
4.9868704724409447
20
-5.8349176771653539
40
0.0344487795275591
0
CIRCLE
8
BLACK
10
5.1825000000000001
20
-5.8765000000000001
40
0.0784999606299213
0
CIRCLE
8
BLACK
10
5.3781295275590546
20
-5.9180823228346453
40
0.0344487795275591
0
CIRCLE
8
BLACK
10
5.7098010236220471
20
-5.6563185826771649
40
0.0784999606299213
0
CIRCLE
8
BLACK
10
5.5850540551181105
20
-6.2432071653543302
40
0.0599999606299213
0
CIRCLE
8
BLACK
10
4.867176850393701
20
-5.6765717322834641
40
0.0078740157480315
0
CIRCLE
8
BLACK
10
4.8547021653543307
20
-5.7352605905511806
40
0.0078740157480315
0
CIRCLE
8
BLACK
10
5.056569015748031
20
-5.7474985433070866
40
0.0590551181102362
0
CIRCLE
8
BLACK
10
5.3218970866141735
20
-5.7016616535433071
40
0.0590551181102362
0
CIRCLE
8
BLACK
10
5.5237639763779525
20
-5.7138995669291335
40
0.0078740157480315
0
CIRCLE
8
BLACK
10
5.5112892519685035
20
-5.77258842519685
40
0.0078740157480315
0
CIRCLE
8
BLACK
10
5.4388704724409447
20
-1.9059176771653543
40
0.0344487795275591
0
CIRCLE
8
BLACK
10
5.6345000000000001
20
-1.9475
40
0.0784999606299213
0
CIRCLE
8
BLACK
10
5.8301295275590546
20
-1.9890823228346457
40
0.0344487795275591
0
CIRCLE
8
BLACK
10
5.3191768503937009
20
-1.7475717322834645
40
0.0078740157480315
0
CIRCLE
8
BLACK
10
5.3067021653543307
20
-1.806260590551181
40
0.0078740157480315
0
CIRCLE
8
BLACK
10
5.5085690157480309
20
-1.8184985433070866
40
0.0590551181102362
0
CIRCLE
8
BLACK
10
5.7738970866141734
20
-1.7726616535433071
40
0.0590551181102362
0
CIRCLE
8
BLACK
10
5.9757639763779524
20
-1.7848995669291339
40
0.0078740157480315
0
CIRCLE
8
BLACK
10
5.9632892519685035
20
-1.8435884251968504
40
0.0078740157480315
0
CIRCLE
8
BLACK
10
5.4283704724409452
20
-2.8619176771653541
40
0.0344487795275591
0
CIRCLE
8
BLACK
10
5.6239999999999997
20
-2.9034999999999997
40
0.0784999606299213
0
CIRCLE
8
BLACK
10
5.819629527559055
20
-2.9450823228346454
40
0.0344487795275591
0
CIRCLE
8
BLACK
10
5.3086768503937005
20
-2.7035717322834647
40
0.0078740157480315
0
CIRCLE
8
BLACK
10
5.2962021653543303
20
-2.7622605905511812
40
0.0078740157480315
0
CIRCLE
8
BLACK
10
5.4980690157480314
20
-2.7744985433070863
40
0.0590551181102362
0
CIRCLE
8
BLACK
10
5.763397086614173
20
-2.7286616535433068
40
0.0590551181102362
0
CIRCLE
8
BLACK
10
5.9652639763779529
20
-2.7408995669291336
40
0.0078740157480315
0
CIRCLE
8
BLACK
10
5.9527892519685039
20
-2.7995884251968501
40
0.0078740157480315
0
CIRCLE
8
BLACK
10
5.6383704724409451
20
-3.6719176771653541
40
0.0344487795275591
0
CIRCLE
8
BLACK
10
5.8339999999999996
20
-3.7134999999999998
40
0.0784999606299213
0
CIRCLE
8
BLACK
10
6.029629527559055
20
-3.7550823228346455
40
0.0344487795275591
0
CIRCLE
8
BLACK
10
5.5186768503937005
20
-3.5135717322834643
40
0.0078740157480315
0
CIRCLE
8
BLACK
10
5.5062021653543303
20
-3.5722605905511808
40
0.0078740157480315
0
CIRCLE
8
BLACK
10
5.7080690157480314
20
-3.5844985433070864
40
0.0590551181102362
0
CIRCLE
8
BLACK
10
5.973397086614173
20
-3.5386616535433069
40
0.0590551181102362
0
CIRCLE
8
BLACK
10
6.1752639763779529
20
-3.5508995669291337
40
0.0078740157480315
0
CIRCLE
8
BLACK
10
6.1627892519685039
20
-3.6095884251968502
40
0.0078740157480315
0
CIRCLE
8
BLACK
10
5.6648704724409447
20
-4.4449176771653542
40
0.0344487795275591
0
CIRCLE
8
BLACK
10
5.8605
20
-4.4864999999999995
40
0.0784999606299213
0
CIRCLE
8
BLACK
10
6.0561295275590545
20
-4.5280823228346456
40
0.0344487795275591
0
CIRCLE
8
BLACK
10
5.5451768503937009
20
-4.2865717322834644
40
0.0078740157480315
0
CIRCLE
8
BLACK
10
5.5327021653543307
20
-4.345260590551181
40
0.0078740157480315
0
CIRCLE
8
BLACK
10
5.7345690157480318
20
-4.3574985433070861
40
0.0590551181102362
0
CIRCLE
8
BLACK
10
5.9998970866141734
20
-4.3116616535433065
40
0.0590551181102362
0
CIRCLE
8
BLACK
10
6.2017639763779524
20
-4.3238995669291338
40
0.0078740157480315
0
CIRCLE
8
BLACK
10
6.1892892519685034
20
-4.3825884251968503
40
0.0078740157480315
0
CIRCLE
8
BLACK
10
5.9103822834645667
20
-5.2640003543307081
40
0.0344487795275591
0
CIRCLE
8
BLACK
10
6.1060118110236221
20
-5.3055826771653543
40
0.0784999606299213
0
CIRCLE
8
BLACK
10
6.3016413385826766
20
-5.3471649999999995
40
0.0344487795275591
0
CIRCLE
8
BLACK
10
5.790688661417323
20
-5.1056544094488192
40
0.0078740157480315
0
CIRCLE
8
BLACK
10
5.7782139763779528
20
-5.1643432677165357
40
0.0078740157480315
0
CIRCLE
8
BLACK
10
5.980080826771653
20
-5.1765812204724408
40
0.0590551181102362
0
CIRCLE
8
BLACK
10
6.2454088976377955
20
-5.1307443307086613
40
0.0590551181102362
0
CIRCLE
8
BLACK
10
6.4472757874015745
20
-5.1429822440944877
40
0.0078740157480315
0
CIRCLE
8
BLACK
10
6.4348010629921255
20
-5.2016711023622042
40
0.0078740157480315
0
CIRCLE
8
BLACK
10
6.087370472440945
20
-6.0684176771653542
40
0.0344487795275591
0
CIRCLE
8
BLACK
10
6.2829999999999995
20
-6.1099999999999994
40
0.0784999606299213
0
CIRCLE
8
BLACK
10
6.4786295275590549
20
-6.1515823228346456
40
0.0344487795275591
0
CIRCLE
8
BLACK
10
5.9676768503937003
20
-5.9100717322834644
40
0.0078740157480315
0
CIRCLE
8
BLACK
10
5.955202165354331
20
-5.9687605905511809
40
0.0078740157480315
0
CIRCLE
8
BLACK
10
6.1570690157480312
20
-5.9809985433070869
40
0.0590551181102362
0
CIRCLE
8
BLACK
10
6.4223970866141729
20
-5.9351616535433074
40
0.0590551181102362
0
CIRCLE
8
BLACK
10
6.6242639763779527
20
-5.9473995669291337
40
0.0078740157480315
0
CIRCLE
8
BLACK
10
6.6117892519685038
20
-6.0060884251968503
40
0.0078740157480315
0
CIRCLE
8
BLACK
10
6.1718704724409443
20
-2.0619176771653542
40
0.0344487795275591
0
CIRCLE
8
BLACK
10
6.3674999999999997
20
-2.1034999999999999
40
0.0784999606299213
0
CIRCLE
8
BLACK
10
6.5631295275590551
20
-2.1450823228346456
40
0.0344487795275591
0
CIRCLE
8
BLACK
10
6.0521768503937006
20
-1.9035717322834644
40
0.0078740157480315
0
CIRCLE
8
BLACK
10
6.0397021653543304
20
-1.962260590551181
40
0.0078740157480315
0
CIRCLE
8
BLACK
10
6.2415690157480315
20
-1.9744985433070865
40
0.0590551181102362
0
CIRCLE
8
BLACK
10
6.5068970866141731
20
-1.928661653543307
40
0.0590551181102362
0
CIRCLE
8
BLACK
10
6.708763976377953
20
-1.9408995669291338
40
0.0078740157480315
0
CIRCLE
8
BLACK
10
6.696289251968504
20
-1.9995884251968503
40
0.0078740157480315
0
CIRCLE
8
BLACK
10
6.1623704724409452
20
-3.0169176771653543
40
0.0344487795275591
0
CIRCLE
8
BLACK
10
6.3579999999999997
20
-3.0585
40
0.0784999606299213
0
CIRCLE
8
BLACK
10
6.553629527559055
20
-3.1000823228346457
40
0.0344487795275591
0
CIRCLE
8
BLACK
10
6.0426768503937005
20
-2.8585717322834645
40
0.0078740157480315
0
CIRCLE
8
BLACK
10
6.0302021653543303
20
-2.917260590551181
40
0.0078740157480315
0
CIRCLE
8
BLACK
10
6.2320690157480314
20
-2.9294985433070866
40
0.0590551181102362
0
CIRCLE
8
BLACK
10
6.497397086614173
20
-2.8836616535433071
40
0.0590551181102362
0
CIRCLE
8
BLACK
10
6.6992639763779529
20
-2.8958995669291339
40
0.0078740157480315
0
CIRCLE
8
BLACK
10
6.6867892519685039
20
-2.9545884251968504
40
0.0078740157480315
0
CIRCLE
8
BLACK
10
7.0588704724409448
20
-3.9115823228346458
40
0.0344487795275591
0
CIRCLE
8
BLACK
10
7.2545000000000002
20
-3.8700000000000001
40
0.0784999606299213
0
CIRCLE
8
BLACK
10
7.4501295275590547
20
-3.8284176771653544
40
0.0344487795275591
0
CIRCLE
8
BLACK
10
6.8851197637795272
20
-3.8156099212598424
40
0.0078740157480315
0
CIRCLE
8
BLACK
10
6.8975945275590549
20
-3.8742987401574802
40
0.0078740157480315
0
CIRCLE
8
BLACK
10
7.0869866929133858
20
-3.8033720078740156
40
0.0590551181102362
0
CIRCLE
8
BLACK
10
7.3107324409448813
20
-3.6535792913385827
40
0.0590551181102362
0
CIRCLE
8
BLACK
10
7.5001246062992122
20
-3.5826525590551181
40
0.0078740157480315
0
CIRCLE
8
BLACK
10
7.5125992913385824
20
-3.6413414173228347
40
0.0078740157480315
0
CIRCLE
8
BLACK
10
7.3978704724409443
20
-4.6060823228346459
40
0.0344487795275591
0
CIRCLE
8
BLACK
10
7.5934999999999997
20
-4.5644999999999998
40
0.0784999606299213
0
CIRCLE
8
BLACK
10
7.7891295275590551
20
-4.5229176771653545
40
0.0344487795275591
0
CIRCLE
8
BLACK
10
7.2241197637795276
20
-4.5101099212598426
40
0.0078740157480315
0
CIRCLE
8
BLACK
10
7.2365945275590553
20
-4.5687987401574803
40
0.0078740157480315
0
CIRCLE
8
BLACK
10
7.4259866929133853
20
-4.4978720078740153
40
0.0590551181102362
0
CIRCLE
8
BLACK
10
7.6497324409448817
20
-4.3480792913385828
40
0.0590551181102362
0
CIRCLE
8
BLACK
10
7.8391246062992126
20
-4.2771525590551178
40
0.0078740157480315
0
CIRCLE
8
BLACK
10
7.8515992913385828
20
-4.3358414173228343
40
0.0078740157480315
0
CIRCLE
8
BLACK
10
7.7368704724409447
20
-5.3010823228346453
40
0.0344487795275591
0
CIRCLE
8
BLACK
10
7.9325000000000001
20
-5.2595000000000001
40
0.0784999606299213
0
CIRCLE
8
BLACK
10
8.1281295275590555
20
-5.2179176771653539
40
0.0344487795275591
0
CIRCLE
8
BLACK
10
7.5631197637795271
20
-5.2051099212598428
40
0.0078740157480315
0
CIRCLE
8
BLACK
10
7.5755945275590548
20
-5.2637987401574806
40
0.0078740157480315
0
CIRCLE
8
BLACK
10
7.7649866929133857
20
-5.1928720078740156
40
0.0590551181102362
0
CIRCLE
8
BLACK
10
7.9887324409448821
20
-5.0430792913385822
40
0.0590551181102362
0
CIRCLE
8
BLACK
10
8.1781246062992121
20
-4.9721525590551181
40
0.0078740157480315
0
CIRCLE
8
BLACK
10
8.1905992913385823
20
-5.0308414173228346
40
0.0078740157480315
0
CIRCLE
8
BLACK
10
7.2578704724409446
20
-2.1445823228346454
40
0.0344487795275591
0
CIRCLE
8
BLACK
10
7.4535
20
-2.1029999999999998
40
0.0784999606299213
0
CIRCLE
8
BLACK
10
7.6491295275590545
20
-2.0614176771653541
40
0.0344487795275591
0
CIRCLE
8
BLACK
10
7.084119763779527
20
-2.0486099212598425
40
0.0078740157480315
0
CIRCLE
8
BLACK
10
7.0965945275590547
20
-2.1072987401574803
40
0.0078740157480315
0
CIRCLE
8
BLACK
10
7.2859866929133856
20
-2.0363720078740157
40
0.0590551181102362
0
CIRCLE
8
BLACK
10
7.509732440944882
20
-1.8865792913385826
40
0.0590551181102362
0
CIRCLE
8
BLACK
10
7.699124606299212
20
-1.815652559055118
40
0.0078740157480315
0
CIRCLE
8
BLACK
10
7.7115992913385822
20
-1.8743414173228345
40
0.0078740157480315
0
CIRCLE
8
BLACK
10
7.2693704724409445
20
-3.1000823228346457
40
0.0344487795275591
0
CIRCLE
8
BLACK
10
7.4649999999999999
20
-3.0585
40
0.0784999606299213
0
CIRCLE
8
BLACK
10
7.6606295275590552
20
-3.0169176771653543
40
0.0344487795275591
0
CIRCLE
8
BLACK
10
7.0956197637795277
20
-3.0041099212598423
40
0.0078740157480315
0
CIRCLE
8
BLACK
10
7.1080945275590546
20
-3.0627987401574801
40
0.0078740157480315
0
CIRCLE
8
BLACK
10
7.2974866929133855
20
-2.9918720078740155
40
0.0590551181102362
0
CIRCLE
8
BLACK
10
7.5212324409448819
20
-2.8420792913385826
40
0.0590551181102362
0
CIRCLE
8
BLACK
10
7.7106246062992128
20
-2.771152559055118
40
0.0078740157480315
0
CIRCLE
8
BLACK
10
7.7230992913385821
20
-2.8298414173228346
40
0.0078740157480315
0
CIRCLE
8
BLACK
10
7.7918704724409444
20
-3.7550823228346455
40
0.0344487795275591
0
CIRCLE
8
BLACK
10
7.9874999999999998
20
-3.7134999999999998
40
0.0784999606299213
0
CIRCLE
8
BLACK
10
8.1831295275590552
20
-3.6719176771653541
40
0.0344487795275591
0
CIRCLE
8
BLACK
10
7.6181197637795277
20
-3.6591099212598426
40
0.0078740157480315
0
CIRCLE
8
BLACK
10
7.6305945275590545
20
-3.7177987401574804
40
0.0078740157480315
0
CIRCLE
8
BLACK
10
7.8199866929133854
20
-3.6468720078740158
40
0.0590551181102362
0
CIRCLE
8
BLACK
10
8.0437324409448809
20
-3.4970792913385824
40
0.0590551181102362
0
CIRCLE
8
BLACK
10
8.2331246062992118
20
-3.4261525590551178
40
0.0078740157480315
0
CIRCLE
8
BLACK
10
8.245599291338582
20
-3.4848414173228344
40
0.0078740157480315
0
CIRCLE
8
BLACK
10
8.1313704724409455
20
-4.4495823228346456
40
0.0344487795275591
0
CIRCLE
8
BLACK
10
8.327
20
-4.4079999999999995
40
0.0784999606299213
0
CIRCLE
8
BLACK
10
8.5226295275590545
20
-4.3664176771653542
40
0.0344487795275591
0
CIRCLE
8
BLACK
10
7.957619763779527
20
-4.3536099212598423
40
0.0078740157480315
0
CIRCLE
8
BLACK
10
7.9700945275590547
20
-4.41229874015748
40
0.0078740157480315
0
CIRCLE
8
BLACK
10
8.1594866929133865
20
-4.3413720078740159
40
0.0590551181102362
0
CIRCLE
8
BLACK
10
8.383232440944882
20
-4.1915792913385825
40
0.0590551181102362
0
CIRCLE
8
BLACK
10
8.5726246062992129
20
-4.1206525590551184
40
0.0078740157480315
0
CIRCLE
8
BLACK
10
8.5850992913385831
20
-4.1793414173228349
40
0.0078740157480315
0
CIRCLE
8
BLACK
10
8.4708704724409447
20
-5.1445823228346459
40
0.0344487795275591
0
CIRCLE
8
BLACK
10
8.6664999999999992
20
-5.1029999999999998
40
0.0784999606299213
0
CIRCLE
8
BLACK
10
8.8621295275590555
20
-5.0614176771653545
40
0.0344487795275591
0
CIRCLE
8
BLACK
10
8.2971197637795271
20
-5.0486099212598425
40
0.0078740157480315
0
CIRCLE
8
BLACK
10
8.3095945275590548
20
-5.1072987401574803
40
0.0078740157480315
0
CIRCLE
8
BLACK
10
8.4989866929133857
20
-5.0363720078740153
40
0.0590551181102362
0
CIRCLE
8
BLACK
10
8.7227324409448812
20
-4.8865792913385828
40
0.0590551181102362
0
CIRCLE
8
BLACK
10
8.9121246062992121
20
-4.8156525590551178
40
0.0078740157480315
0
CIRCLE
8
BLACK
10
8.9245992913385823
20
-4.8743414173228343
40
0.0078740157480315
0
CIRCLE
8
BLACK
10
7.9614459448818895
20
-6.3002071653543306
40
0.0599999606299213
0
CIRCLE
8
BLACK
10
7.8366989763779529
20
-5.7133185826771653
40
0.0784999606299213
0
CIRCLE
8
BLACK
10
8.1683704724409445
20
-5.9750823228346457
40
0.0344487795275591
0
CIRCLE
8
BLACK
10
8.363999999999999
20
-5.9334999999999996
40
0.0784999606299213
0
CIRCLE
8
BLACK
10
8.5596295275590553
20
-5.8919176771653543
40
0.0344487795275591
0
CIRCLE
8
BLACK
10
8.7561576771653549
20
-5.5178816141732279
40
0.0784999606299213
0
CIRCLE
8
BLACK
10
8.8809046850393702
20
-6.1047701574803153
40
0.0599999606299213
0
CIRCLE
8
BLACK
10
7.9946197637795278
20
-5.8791099212598423
40
0.0078740157480315
0
CIRCLE
8
BLACK
10
8.0070945275590546
20
-5.9377987401574801
40
0.0078740157480315
0
CIRCLE
8
BLACK
10
8.1964866929133855
20
-5.866872007874016
40
0.0590551181102362
0
CIRCLE
8
BLACK
10
8.420232440944881
20
-5.7170792913385826
40
0.0590551181102362
0
CIRCLE
8
BLACK
10
8.6096246062992119
20
-5.6461525590551176
40
0.0078740157480315
0
CIRCLE
8
BLACK
10
8.6220992913385821
20
-5.7048414173228341
40
0.0078740157480315
0
CIRCLE
8
BLACK
10
7.9913704724409449
20
-1.9885823228346455
40
0.0344487795275591
0
CIRCLE
8
BLACK
10
8.1869999999999994
20
-1.9470000000000001
40
0.0784999606299213
0
CIRCLE
8
BLACK
10
8.3826295275590557
20
-1.9054176771653544
40
0.0344487795275591
0
CIRCLE
8
BLACK
10
7.8176197637795273
20
-1.8926099212598424
40
0.0078740157480315
0
CIRCLE
8
BLACK
10
7.830094527559055
20
-1.9512987401574802
40
0.0078740157480315
0
CIRCLE
8
BLACK
10
8.0194866929133859
20
-1.8803720078740158
40
0.0590551181102362
0
CIRCLE
8
BLACK
10
8.2432324409448814
20
-1.7305792913385827
40
0.0590551181102362
0
CIRCLE
8
BLACK
10
8.4326246062992123
20
-1.6596525590551181
40
0.0078740157480315
0
CIRCLE
8
BLACK
10
8.4450992913385825
20
-1.7183414173228346
40
0.0078740157480315
0
CIRCLE
8
BLACK
10
8.0033704724409453
20
-2.9445823228346457
40
0.0344487795275591
0
CIRCLE
8
BLACK
10
8.1989999999999998
20
-2.903
40
0.0784999606299213
0
CIRCLE
8
BLACK
10
8.3946295275590543
20
-2.8614176771653543
40
0.0344487795275591
0
CIRCLE
8
BLACK
10
7.8296197637795277
20
-2.8486099212598424
40
0.0078740157480315
0
CIRCLE
8
BLACK
10
7.8420945275590546
20
-2.9072987401574801
40
0.0078740157480315
0
CIRCLE
8
BLACK
10
8.0314866929133863
20
-2.8363720078740156
40
0.0590551181102362
0
CIRCLE
8
BLACK
10
8.2552324409448818
20
-2.6865792913385826
40
0.0590551181102362
0
CIRCLE
8
BLACK
10
8.4446246062992127
20
-2.6156525590551181
40
0.0078740157480315
0
CIRCLE
8
BLACK
10
8.457099291338583
20
-2.6743414173228346
40
0.0078740157480315
0
CIRCLE
8
BLACK
10
8.524870472440945
20
-3.5995823228346455
40
0.0344487795275591
0
CIRCLE
8
BLACK
10
8.7204999999999995
20
-3.5579999999999998
40
0.0784999606299213
0
CIRCLE
8
BLACK
10
8.9161295275590557
20
-3.5164176771653541
40
0.0344487795275591
0
CIRCLE
8
BLACK
10
8.3511197637795274
20
-3.5036099212598426
40
0.0078740157480315
0
CIRCLE
8
BLACK
10
8.3635945275590551
20
-3.5622987401574804
40
0.0078740157480315
0
CIRCLE
8
BLACK
10
8.552986692913386
20
-3.4913720078740158
40
0.0590551181102362
0
CIRCLE
8
BLACK
10
8.7767324409448815
20
-3.3415792913385824
40
0.0590551181102362
0
CIRCLE
8
BLACK
10
8.9661246062992124
20
-3.2706525590551179
40
0.0078740157480315
0
CIRCLE
8
BLACK
10
8.9785992913385826
20
-3.3293414173228344
40
0.0078740157480315
0
CIRCLE
8
BLACK
10
8.8648704724409448
20
-4.2930823228346453
40
0.0344487795275591
0
CIRCLE
8
BLACK
10
9.0604999999999993
20
-4.2515000000000001
40
0.0784999606299213
0
CIRCLE
8
BLACK
10
9.2561295275590556
20
-4.2099176771653539
40
0.0344487795275591
0
CIRCLE
8
BLACK
10
8.6911197637795272
20
-4.1971099212598428
40
0.0078740157480315
0
CIRCLE
8
BLACK
10
8.7035945275590549
20
-4.2557987401574806
40
0.0078740157480315
0
CIRCLE
8
BLACK
10
8.8929866929133858
20
-4.1848720078740156
40
0.0590551181102362
0
CIRCLE
8
BLACK
10
9.1167324409448813
20
-4.0350792913385822
40
0.0590551181102362
0
CIRCLE
8
BLACK
10
9.3061246062992122
20
-3.9641525590551181
40
0.0078740157480315
0
CIRCLE
8
BLACK
10
9.3185992913385824
20
-4.0228414173228346
40
0.0078740157480315
0
CIRCLE
8
BLACK
10
9.2038704724409452
20
-4.9885823228346453
40
0.0344487795275591
0
CIRCLE
8
BLACK
10
9.3994999999999997
20
-4.9470000000000001
40
0.0784999606299213
0
CIRCLE
8
BLACK
10
9.5951295275590542
20
-4.9054176771653539
40
0.0344487795275591
0
CIRCLE
8
BLACK
10
9.0301197637795276
20
-4.8926099212598428
40
0.0078740157480315
0
CIRCLE
8
BLACK
10
9.0425945275590554
20
-4.9512987401574806
40
0.0078740157480315
0
CIRCLE
8
BLACK
10
9.2319866929133862
20
-4.8803720078740156
40
0.0590551181102362
0
CIRCLE
8
BLACK
10
9.4557324409448817
20
-4.7305792913385822
40
0.0590551181102362
0
CIRCLE
8
BLACK
10
9.6451246062992126
20
-4.6596525590551181
40
0.0078740157480315
0
CIRCLE
8
BLACK
10
9.6575992913385829
20
-4.7183414173228346
40
0.0078740157480315
0
CIRCLE
8
BLACK
10
8.7358704724409453
20
-2.7880823228346454
40
0.0344487795275591
0
CIRCLE
8
BLACK
10
8.9314999999999998
20
-2.7464999999999997
40
0.0784999606299213
0
CIRCLE
8
BLACK
10
9.1271295275590543
20
-2.7049176771653545
40
0.0344487795275591
0
CIRCLE
8
BLACK
10
8.5621197637795277
20
-2.6921099212598425
40
0.0078740157480315
0
CIRCLE
8
BLACK
10
8.5745945275590554
20
-2.7507987401574803
40
0.0078740157480315
0
CIRCLE
8
BLACK
10
8.7639866929133863
20
-2.6798720078740157
40
0.0590551181102362
0
CIRCLE
8
BLACK
10
8.9877324409448818
20
-2.5300792913385828
40
0.0590551181102362
0
CIRCLE
8
BLACK
10
9.1771246062992127
20
-2.4591525590551182
40
0.0078740157480315
0
CIRCLE
8
BLACK
10
9.1895992913385829
20
-2.5178414173228347
40
0.0078740157480315
0
CIRCLE
8
BLACK
10
9.2583704724409444
20
-3.4435823228346454
40
0.0344487795275591
0
CIRCLE
8
BLACK
10
9.4540000000000006
20
-3.4020000000000001
40
0.0784999606299213
0
CIRCLE
8
BLACK
10
9.6496295275590551
20
-3.3604176771653544
40
0.0344487795275591
0
CIRCLE
8
BLACK
10
9.0846197637795267
20
-3.3476099212598425
40
0.0078740157480315
0
CIRCLE
8
BLACK
10
9.0970945275590545
20
-3.4062987401574802
40
0.0078740157480315
0
CIRCLE
8
BLACK
10
9.2864866929133854
20
-3.3353720078740157
40
0.0590551181102362
0
CIRCLE
8
BLACK
10
9.5102324409448808
20
-3.1855792913385828
40
0.0590551181102362
0
CIRCLE
8
BLACK
10
9.6996246062992117
20
-3.1146525590551182
40
0.0078740157480315
0
CIRCLE
8
BLACK
10
9.712099291338582
20
-3.1733414173228347
40
0.0078740157480315
0
CIRCLE
8
BLACK
10
9.5973704724409448
20
-4.1380823228346459
40
0.0344487795275591
0
CIRCLE
8
BLACK
10
9.7929999999999993
20
-4.0964999999999998
40
0.0784999606299213
0
CIRCLE
8
BLACK
10
9.9886295275590555
20
-4.0549176771653546
40
0.0344487795275591
0
CIRCLE
8
BLACK
10
9.4236197637795271
20
-4.0421099212598426
40
0.0078740157480315
0
CIRCLE
8
BLACK
10
9.4360945275590549
20
-4.1007987401574804
40
0.0078740157480315
0
CIRCLE
8
BLACK
10
9.6254866929133858
20
-4.0298720078740153
40
0.0590551181102362
0
CIRCLE
8
BLACK
10
9.8492324409448813
20
-3.8800792913385824
40
0.0590551181102362
0
CIRCLE
8
BLACK
10
10.0386246062992122
20
-3.8091525590551178
40
0.0078740157480315
0
CIRCLE
8
BLACK
10
10.0510992913385824
20
-3.8678414173228344
40
0.0078740157480315
0
CIRCLE
8
BLACK
10
9.9378704724409452
20
-4.8325823228346456
40
0.0344487795275591
0
CIRCLE
8
BLACK
10
10.1334999999999997
20
-4.7909999999999995
40
0.0784999606299213
0
CIRCLE
8
BLACK
10
10.3291295275590542
20
-4.7494176771653542
40
0.0344487795275591
0
CIRCLE
8
BLACK
10
9.7641197637795276
20
-4.7366099212598423
40
0.0078740157480315
0
CIRCLE
8
BLACK
10
9.7765945275590553
20
-4.79529874015748
40
0.0078740157480315
0
CIRCLE
8
BLACK
10
9.9659866929133862
20
-4.7243720078740159
40
0.0590551181102362
0
CIRCLE
8
BLACK
10
10.1897324409448817
20
-4.5745792913385825
40
0.0590551181102362
0
CIRCLE
8
BLACK
10
10.3791246062992126
20
-4.5036525590551184
40
0.0078740157480315
0
CIRCLE
8
BLACK
10
10.3915992913385828
20
-4.5623414173228349
40
0.0078740157480315
0
CIRCLE
8
BLACK
10
9.7268704724409449
20
-5.6440823228346453
40
0.0344487795275591
0
CIRCLE
8
BLACK
10
9.9224999999999994
20
-5.6025
40
0.0784999606299213
0
CIRCLE
8
BLACK
10
10.1181295275590557
20
-5.5609176771653539
40
0.0344487795275591
0
CIRCLE
8
BLACK
10
9.5531197637795273
20
-5.5481099212598428
40
0.0078740157480315
0
CIRCLE
8
BLACK
10
9.565594527559055
20
-5.6067987401574806
40
0.0078740157480315
0
CIRCLE
8
BLACK
10
9.7549866929133859
20
-5.5358720078740156
40
0.0590551181102362
0
CIRCLE
8
BLACK
10
9.9787324409448814
20
-5.3860792913385822
40
0.0590551181102362
0
CIRCLE
8
BLACK
10
10.1681246062992123
20
-5.3151525590551181
40
0.0078740157480315
0
CIRCLE
8
BLACK
10
10.1805992913385825
20
-5.3738414173228346
40
0.0078740157480315
0
CIRCLE
8
BLACK
10
9.4703704724409441
20
-2.6330823228346456
40
0.0344487795275591
0
CIRCLE
8
BLACK
10
9.6660000000000004
20
-2.5914999999999999
40
0.0784999606299213
0
CIRCLE
8
BLACK
10
9.8616295275590549
20
-2.5499176771653542
40
0.0344487795275591
0
CIRCLE
8
BLACK
10
9.2966197637795265
20
-2.5371099212598422
40
0.0078740157480315
0
CIRCLE
8
BLACK
10
9.3090945275590542
20
-2.5957987401574805
40
0.0078740157480315
0
CIRCLE
8
BLACK
10
9.4984866929133851
20
-2.5248720078740159
40
0.0590551181102362
0
CIRCLE
8
BLACK
10
9.7222324409448824
20
-2.3750792913385825
40
0.0590551181102362
0
CIRCLE
8
BLACK
10
9.9116246062992115
20
-2.304152559055118
40
0.0078740157480315
0
CIRCLE
8
BLACK
10
9.9240992913385817
20
-2.3628414173228345
40
0.0078740157480315
0
CIRCLE
8
BLACK
10
10.4137795275590541
20
-3.9844999999999997
40
0.0344487795275591
0
CIRCLE
8
BLACK
10
10.6137795275590552
20
-3.9844999999999997
40
0.0784999606299213
0
CIRCLE
8
BLACK
10
10.8137795275590545
20
-3.9844999999999997
40
0.0344487795275591
0
CIRCLE
8
BLACK
10
10.2637795275590555
20
-3.8544999999999998
40
0.0078740157480315
0
CIRCLE
8
BLACK
10
10.2637795275590555
20
-3.9144999999999999
40
0.0078740157480315
0
CIRCLE
8
BLACK
10
10.4637795275590548
20
-3.8845000000000001
40
0.0590551181102362
0
CIRCLE
8
BLACK
10
10.7137795275590548
20
-3.7845
40
0.0590551181102362
0
CIRCLE
8
BLACK
10
10.9137795275590541
20
-3.7544999999999997
40
0.0078740157480315
0
CIRCLE
8
BLACK
10
10.9137795275590541
20
-3.8144999999999998
40
0.0078740157480315
0
CIRCLE
8
BLACK
10
10.7750000000000004
20
-4.7335000000000003
40
0.0344487795275591
0
CIRCLE
8
BLACK
10
10.9749999999999996
20
-4.7335000000000003
40
0.0784999606299213
0
CIRCLE
8
BLACK
10
11.1749999999999989
20
-4.7335000000000003
40
0.0344487795275591
0
CIRCLE
8
BLACK
10
10.625
20
-4.6034999999999995
40
0.0078740157480315
0
CIRCLE
8
BLACK
10
10.625
20
-4.6635
40
0.0078740157480315
0
CIRCLE
8
BLACK
10
10.8249999999999993
20
-4.6334999999999997
40
0.0590551181102362
0
CIRCLE
8
BLACK
10
11.0749999999999993
20
-4.5335000000000001
40
0.0590551181102362
0
CIRCLE
8
BLACK
10
11.2750000000000004
20
-4.5034999999999998
40
0.0078740157480315
0
CIRCLE
8
BLACK
10
11.2750000000000004
20
-4.5635000000000003
40
0.0078740157480315
0
CIRCLE
8
BLACK
10
10.4858267716535423
20
-1.5314960629921259
40
0.0344487795275591
0
CIRCLE
8
BLACK
10
10.6858267716535433
20
-1.5314960629921259
40
0.0784999606299213
0
CIRCLE
8
BLACK
10
10.8858267716535426
20
-1.5314960629921259
40
0.0344487795275591
0
CIRCLE
8
BLACK
10
10.3358267716535437
20
-1.401496062992126
40
0.0078740157480315
0
CIRCLE
8
BLACK
10
10.3358267716535437
20
-1.4614960629921259
40
0.0078740157480315
0
CIRCLE
8
BLACK
10
10.535826771653543
20
-1.4314960629921261
40
0.0590551181102362
0
CIRCLE
8
BLACK
10
10.785826771653543
20
-1.331496062992126
40
0.0590551181102362
0
CIRCLE
8
BLACK
10
10.9858267716535423
20
-1.3014960629921259
40
0.0078740157480315
0
CIRCLE
8
BLACK
10
10.9858267716535423
20
-1.361496062992126
40
0.0078740157480315
0
CIRCLE
8
BLACK
10
10.5931771653543301
20
-2.4793307086614171
40
0.0344487795275591
0
CIRCLE
8
BLACK
10
10.7931771653543311
20
-2.4793307086614171
40
0.0784999606299213
0
CIRCLE
8
BLACK
10
10.9931771653543304
20
-2.4793307086614171
40
0.0344487795275591
0
CIRCLE
8
BLACK
10
10.4431771653543297
20
-2.3493307086614172
40
0.0078740157480315
0
CIRCLE
8
BLACK
10
10.4431771653543297
20
-2.4093307086614173
40
0.0078740157480315
0
CIRCLE
8
BLACK
10
10.6431771653543308
20
-2.379330708661417
40
0.0590551181102362
0
CIRCLE
8
BLACK
10
10.8931771653543308
20
-2.2793307086614174
40
0.0590551181102362
0
CIRCLE
8
BLACK
10
11.0931771653543301
20
-2.2493307086614172
40
0.0078740157480315
0
CIRCLE
8
BLACK
10
11.0931771653543301
20
-2.3093307086614172
40
0.0078740157480315
0
CIRCLE
8
BLACK
10
10.9712598425196841
20
-3.2334999999999998
40
0.0344487795275591
0
CIRCLE
8
BLACK
10
11.1712598425196852
20
-3.2334999999999998
40
0.0784999606299213
0
CIRCLE
8
BLACK
10
11.3712598425196845
20
-3.2334999999999998
40
0.0344487795275591
0
CIRCLE
8
BLACK
10
10.8212598425196855
20
-3.1034999999999999
40
0.0078740157480315
0
CIRCLE
8
BLACK
10
10.8212598425196855
20
-3.1635
40
0.0078740157480315
0
CIRCLE
8
BLACK
10
11.0212598425196848
20
-3.1334999999999997
40
0.0590551181102362
0
CIRCLE
8
BLACK
10
11.2712598425196848
20
-3.0335000000000001
40
0.0590551181102362
0
CIRCLE
8
BLACK
10
11.4712598425196841
20
-3.0034999999999998
40
0.0078740157480315
0
CIRCLE
8
BLACK
10
11.4712598425196841
20
-3.0634999999999999
40
0.0078740157480315
0
CIRCLE
8
BLACK
10
11.1637795275590541
20
-3.9844999999999997
40
0.0344487795275591
0
CIRCLE
8
BLACK
10
11.3637795275590552
20
-3.9844999999999997
40
0.0784999606299213
0
CIRCLE
8
BLACK
10
11.5637795275590545
20
-3.9844999999999997
40
0.0344487795275591
0
CIRCLE
8
BLACK
10
11.0137795275590555
20
-3.8544999999999998
40
0.0078740157480315
0
CIRCLE
8
BLACK
10
11.0137795275590555
20
-3.9144999999999999
40
0.0078740157480315
0
CIRCLE
8
BLACK
10
11.2137795275590548
20
-3.8845000000000001
40
0.0590551181102362
0
CIRCLE
8
BLACK
10
11.4637795275590548
20
-3.7845
40
0.0590551181102362
0
CIRCLE
8
BLACK
10
11.6637795275590541
20
-3.7544999999999997
40
0.0078740157480315
0
CIRCLE
8
BLACK
10
11.6637795275590541
20
-3.8144999999999998
40
0.0078740157480315
0
CIRCLE
8
BLACK
10
11.5322834645669285
20
-4.734
40
0.0344487795275591
0
CIRCLE
8
BLACK
10
11.7322834645669296
20
-4.734
40
0.0784999606299213
0
CIRCLE
8
BLACK
10
11.9322834645669289
20
-4.734
40
0.0344487795275591
0
CIRCLE
8
BLACK
10
11.3822834645669282
20
-4.6040000000000001
40
0.0078740157480315
0
CIRCLE
8
BLACK
10
11.3822834645669282
20
-4.6639999999999997
40
0.0078740157480315
0
CIRCLE
8
BLACK
10
11.5822834645669293
20
-4.6339999999999995
40
0.0590551181102362
0
CIRCLE
8
BLACK
10
11.8322834645669293
20
-4.5339999999999998
40
0.0590551181102362
0
CIRCLE
8
BLACK
10
12.0322834645669285
20
-4.5039999999999996
40
0.0078740157480315
0
CIRCLE
8
BLACK
10
12.0322834645669285
20
-4.5640000000000001
40
0.0078740157480315
0
CIRCLE
8
BLACK
10
11.2363267716535429
20
-1.5314960629921259
40
0.0344487795275591
0
CIRCLE
8
BLACK
10
11.4363267716535422
20
-1.5314960629921259
40
0.0784999606299213
0
CIRCLE
8
BLACK
10
11.6363267716535432
20
-1.5314960629921259
40
0.0344487795275591
0
CIRCLE
8
BLACK
10
11.0863267716535425
20
-1.401496062992126
40
0.0078740157480315
0
CIRCLE
8
BLACK
10
11.0863267716535425
20
-1.4614960629921259
40
0.0078740157480315
0
CIRCLE
8
BLACK
10
11.2863267716535436
20
-1.4314960629921261
40
0.0590551181102362
0
CIRCLE
8
BLACK
10
11.5363267716535436
20
-1.331496062992126
40
0.0590551181102362
0
CIRCLE
8
BLACK
10
11.7363267716535429
20
-1.3014960629921259
40
0.0078740157480315
0
CIRCLE
8
BLACK
10
11.7363267716535429
20
-1.361496062992126
40
0.0078740157480315
0
CIRCLE
8
BLACK
10
11.3496456692913377
20
-2.4793149606299214
40
0.0344487795275591
0
CIRCLE
8
BLACK
10
11.5496456692913387
20
-2.4793149606299214
40
0.0784999606299213
0
CIRCLE
8
BLACK
10
11.749645669291338
20
-2.4793149606299214
40
0.0344487795275591
0
CIRCLE
8
BLACK
10
11.1996456692913391
20
-2.3493149606299211
40
0.0078740157480315
0
CIRCLE
8
BLACK
10
11.1996456692913391
20
-2.4093149606299211
40
0.0078740157480315
0
CIRCLE
8
BLACK
10
11.3996456692913384
20
-2.3793149606299213
40
0.0590551181102362
0
CIRCLE
8
BLACK
10
11.6496456692913384
20
-2.2793149606299212
40
0.0590551181102362
0
CIRCLE
8
BLACK
10
11.8496456692913377
20
-2.2493149606299214
40
0.0078740157480315
0
CIRCLE
8
BLACK
10
11.8496456692913377
20
-2.309314960629921
40
0.0078740157480315
0
CIRCLE
8
BLACK
10
11.7192913385826767
20
-3.2334999999999998
40
0.0344487795275591
0
CIRCLE
8
BLACK
10
11.9192913385826778
20
-3.2334999999999998
40
0.0784999606299213
0
CIRCLE
8
BLACK
10
12.119291338582677
20
-3.2334999999999998
40
0.0344487795275591
0
CIRCLE
8
BLACK
10
11.5692913385826763
20
-3.1034999999999999
40
0.0078740157480315
0
CIRCLE
8
BLACK
10
11.5692913385826763
20
-3.1635
40
0.0078740157480315
0
CIRCLE
8
BLACK
10
11.7692913385826774
20
-3.1334999999999997
40
0.0590551181102362
0
CIRCLE
8
BLACK
10
12.0192913385826774
20
-3.0335000000000001
40
0.0590551181102362
0
CIRCLE
8
BLACK
10
12.2192913385826767
20
-3.0034999999999998
40
0.0078740157480315
0
CIRCLE
8
BLACK
10
12.2192913385826767
20
-3.0634999999999999
40
0.0078740157480315
0
CIRCLE
8
BLACK
10
12.6884606299212592
20
-3.139240157480315
40
0.0599999606299213
0
CIRCLE
8
BLACK
10
12.6884606299212592
20
-4.0792401574803145
40
0.0599999606299213
0
CIRCLE
8
BLACK
10
12.7634606299212603
20
-3.6092401574803148
40
0.0344487795275591
0
CIRCLE
8
BLACK
10
12.9634606299212596
20
-3.6092401574803148
40
0.0784999606299213
0
CIRCLE
8
BLACK
10
13.1634606299212589
20
-3.6092401574803148
40
0.0344487795275591
0
CIRCLE
8
BLACK
10
13.2884606299212589
20
-3.139240157480315
40
0.0784999606299213
0
CIRCLE
8
BLACK
10
13.2884606299212589
20
-4.0792401574803145
40
0.0784999606299213
0
CIRCLE
8
BLACK
10
12.6134606299212599
20
-3.4792401574803149
40
0.0078740157480315
0
CIRCLE
8
BLACK
10
12.6134606299212599
20
-3.539240157480315
40
0.0078740157480315
0
CIRCLE
8
BLACK
10
12.8134606299212592
20
-3.5092401574803147
40
0.0590551181102362
0
CIRCLE
8
BLACK
10
13.0634606299212592
20
-3.4092401574803151
40
0.0590551181102362
0
CIRCLE
8
BLACK
10
13.2634606299212603
20
-3.3792401574803148
40
0.0078740157480315
0
CIRCLE
8
BLACK
10
13.2634606299212603
20
-3.4392401574803149
40
0.0078740157480315
0
CIRCLE
8
BLACK
10
11.5337519685039371
20
-5.4921259842519685
40
0.0344487795275591
0
CIRCLE
8
BLACK
10
11.7337519685039364
20
-5.4921259842519685
40
0.0784999606299213
0
CIRCLE
8
BLACK
10
11.9337519685039375
20
-5.4921259842519685
40
0.0344487795275591
0
CIRCLE
8
BLACK
10
11.3837519685039368
20
-5.3621259842519686
40
0.0078740157480315
0
CIRCLE
8
BLACK
10
11.3837519685039368
20
-5.4221259842519682
40
0.0078740157480315
0
CIRCLE
8
BLACK
10
11.5837519685039361
20
-5.392125984251968
40
0.0590551181102362
0
CIRCLE
8
BLACK
10
11.8337519685039361
20
-5.2921259842519683
40
0.0590551181102362
0
CIRCLE
8
BLACK
10
12.0337519685039371
20
-5.2621259842519681
40
0.0078740157480315
0
CIRCLE
8
BLACK
10
12.0337519685039371
20
-5.3221259842519686
40
0.0078740157480315
0
CIRCLE
8
BLACK
10
12.2100039370078743
20
-2.2033129921259844
40
0.0599999606299213
0
CIRCLE
8
BLACK
10
12.2100039370078743
20
-2.8033129921259841
40
0.0784999606299213
0
CIRCLE
8
BLACK
10
12.4800039370078739
20
-2.4783307086614172
40
0.0344487795275591
0
CIRCLE
8
BLACK
10
12.6800039370078732
20
-2.4783307086614172
40
0.0784999606299213
0
CIRCLE
8
BLACK
10
12.8800039370078743
20
-2.4783307086614172
40
0.0344487795275591
0
CIRCLE
8
BLACK
10
13.1500039370078738
20
-2.2033129921259844
40
0.0599999606299213
0
CIRCLE
8
BLACK
10
13.1500039370078738
20
-2.8033129921259841
40
0.0784999606299213
0
CIRCLE
8
BLACK
10
12.3300039370078736
20
-2.3483307086614174
40
0.0078740157480315
0
CIRCLE
8
BLACK
10
12.3300039370078736
20
-2.4083307086614174
40
0.0078740157480315
0
CIRCLE
8
BLACK
10
12.5300039370078728
20
-2.3783307086614172
40
0.0590551181102362
0
CIRCLE
8
BLACK
10
12.7800039370078728
20
-2.2783307086614171
40
0.0590551181102362
0
CIRCLE
8
BLACK
10
12.9800039370078739
20
-2.2483307086614173
40
0.0078740157480315
0
CIRCLE
8
BLACK
10
12.9800039370078739
20
-2.3083307086614173
40
0.0078740157480315
0
CIRCLE
8
BLACK
10
12.284251968503936
20
-4.7362204724409445
40
0.0344487795275591
0
CIRCLE
8
BLACK
10
12.484251968503937
20
-4.7362204724409445
40
0.0784999606299213
0
CIRCLE
8
BLACK
10
12.6842519685039363
20
-4.7362204724409445
40
0.0344487795275591
0
CIRCLE
8
BLACK
10
12.1342519685039374
20
-4.6062204724409446
40
0.0078740157480315
0
CIRCLE
8
BLACK
10
12.1342519685039374
20
-4.6662204724409451
40
0.0078740157480315
0
CIRCLE
8
BLACK
10
12.3342519685039367
20
-4.6362204724409448
40
0.0590551181102362
0
CIRCLE
8
BLACK
10
12.5842519685039367
20
-4.5362204724409452
40
0.0590551181102362
0
CIRCLE
8
BLACK
10
12.784251968503936
20
-4.5062204724409449
40
0.0078740157480315
0
CIRCLE
8
BLACK
10
12.784251968503936
20
-4.5662204724409445
40
0.0078740157480315
0
CIRCLE
8
BLACK
10
12.284251968503936
20
-5.4921259842519685
40
0.0344487795275591
0
CIRCLE
8
BLACK
10
12.484251968503937
20
-5.4921259842519685
40
0.0784999606299213
0
CIRCLE
8
BLACK
10
12.6842519685039363
20
-5.4921259842519685
40
0.0344487795275591
0
CIRCLE
8
BLACK
10
12.1342519685039374
20
-5.3621259842519686
40
0.0078740157480315
0
CIRCLE
8
BLACK
10
12.1342519685039374
20
-5.4221259842519682
40
0.0078740157480315
0
CIRCLE
8
BLACK
10
12.3342519685039367
20
-5.392125984251968
40
0.0590551181102362
0
CIRCLE
8
BLACK
10
12.5842519685039367
20
-5.2921259842519683
40
0.0590551181102362
0
CIRCLE
8
BLACK
10
12.784251968503936
20
-5.2621259842519681
40
0.0078740157480315
0
CIRCLE
8
BLACK
10
12.784251968503936
20
-5.3221259842519686
40
0.0078740157480315
0
CIRCLE
8
BLACK
10
12.0163661417322825
20
-1.5316850393700787
40
0.0344487795275591
0
CIRCLE
8
BLACK
10
12.2163661417322835
20
-1.5316850393700787
40
0.0784999606299213
0
CIRCLE
8
BLACK
10
12.4163661417322828
20
-1.5316850393700787
40
0.0344487795275591
0
CIRCLE
8
BLACK
10
11.8663661417322839
20
-1.4016850393700786
40
0.0078740157480315
0
CIRCLE
8
BLACK
10
11.8663661417322839
20
-1.4616850393700787
40
0.0078740157480315
0
CIRCLE
8
BLACK
10
12.0663661417322832
20
-1.4316850393700786
40
0.0590551181102362
0
CIRCLE
8
BLACK
10
12.3163661417322832
20
-1.3316850393700788
40
0.0590551181102362
0
CIRCLE
8
BLACK
10
12.5163661417322825
20
-1.3016850393700787
40
0.0078740157480315
0
CIRCLE
8
BLACK
10
12.5163661417322825
20
-1.3616850393700788
40
0.0078740157480315
0
CIRCLE
8
BLACK
10
4.4428822834645665
20
-4.9525003543307085
40
0.0344487795275591
0
CIRCLE
8
BLACK
10
4.6385118110236219
20
-4.9940826771653546
40
0.0784999606299213
0
CIRCLE
8
BLACK
10
4.8341413385826772
20
-5.0356649999999998
40
0.0344487795275591
0
CIRCLE
8
BLACK
10
4.3231886614173227
20
-4.7941544094488187
40
0.0078740157480315
0
CIRCLE
8
BLACK
10
4.3107139763779525
20
-4.8528432677165352
40
0.0078740157480315
0
CIRCLE
8
BLACK
10
4.5125808267716536
20
-4.8650812204724412
40
0.0590551181102362
0
CIRCLE
8
BLACK
10
4.7779088976377952
20
-4.8192443307086616
40
0.0590551181102362
0
CIRCLE
8
BLACK
10
4.9797757874015751
20
-4.831482244094488
40
0.0078740157480315
0
CIRCLE
8
BLACK
10
4.9673010629921261
20
-4.8901711023622045
40
0.0078740157480315
0
CIRCLE
8
BLACK
10
4.5228704724409452
20
-1.7104176771653543
40
0.0344487795275591
0
CIRCLE
8
BLACK
10
4.7184999999999997
20
-1.752
40
0.0784999606299213
0
CIRCLE
8
BLACK
10
4.9141295275590551
20
-1.7935823228346457
40
0.0344487795275591
0
CIRCLE
8
BLACK
10
4.4031768503937005
20
-1.5520717322834645
40
0.0078740157480315
0
CIRCLE
8
BLACK
10
4.3907021653543303
20
-1.610760590551181
40
0.0078740157480315
0
CIRCLE
8
BLACK
10
4.5925690157480314
20
-1.6229985433070866
40
0.0590551181102362
0
CIRCLE
8
BLACK
10
4.8578970866141731
20
-1.5771616535433071
40
0.0590551181102362
0
CIRCLE
8
BLACK
10
5.0597639763779529
20
-1.5893995669291339
40
0.0078740157480315
0
CIRCLE
8
BLACK
10
5.047289251968504
20
-1.6480884251968504
40
0.0078740157480315
0
CIRCLE
8
BLACK
10
13.2699999999999996
20
-1.9199999999999999
40
0.0629920866141732
0
CIRCLE
8
BLACK
10
9.6413704724409452
20
-1.6375823228346456
40
0.0344487795275591
0
CIRCLE
8
BLACK
10
9.8369999999999997
20
-1.5959999999999999
40
0.0784999606299213
0
CIRCLE
8
BLACK
10
10.0326295275590542
20
-1.5544176771653544
40
0.0344487795275591
0
CIRCLE
8
BLACK
10
9.4676197637795276
20
-1.5416099212598424
40
0.0078740157480315
0
CIRCLE
8
BLACK
10
9.4800945275590554
20
-1.6002987401574802
40
0.0078740157480315
0
CIRCLE
8
BLACK
10
9.6694866929133862
20
-1.5293720078740156
40
0.0590551181102362
0
CIRCLE
8
BLACK
10
9.8932324409448817
20
-1.3795792913385827
40
0.0590551181102362
0
CIRCLE
8
BLACK
10
10.0826246062992126
20
-1.3086525590551181
40
0.0078740157480315
0
CIRCLE
8
BLACK
10
10.0950992913385829
20
-1.3673414173228347
40
0.0078740157480315
0
CIRCLE
8
BLACK
10
8.9078704724409441
20
-1.7935823228346457
40
0.0344487795275591
0
CIRCLE
8
BLACK
10
9.1035000000000004
20
-1.752
40
0.0784999606299213
0
CIRCLE
8
BLACK
10
9.2991295275590549
20
-1.7104176771653543
40
0.0344487795275591
0
CIRCLE
8
BLACK
10
8.7341197637795265
20
-1.6976099212598426
40
0.0078740157480315
0
CIRCLE
8
BLACK
10
8.7465945275590542
20
-1.7562987401574803
40
0.0078740157480315
0
CIRCLE
8
BLACK
10
8.9359866929133851
20
-1.6853720078740158
40
0.0590551181102362
0
CIRCLE
8
BLACK
10
9.1597324409448824
20
-1.5355792913385826
40
0.0590551181102362
0
CIRCLE
8
BLACK
10
9.3491246062992133
20
-1.464652559055118
40
0.0078740157480315
0
CIRCLE
8
BLACK
10
9.3615992913385817
20
-1.5233414173228346
40
0.0078740157480315
0
CIRCLE
8
BLACK
10
4.7952755905511806
20
-1.1299212598425197
40
0.0629920866141732
0
CIRCLE
8
BLACK
10
1.6219999999999999
20
-3.9834999999999998
40
0.0344487795275591
0
CIRCLE
8
BLACK
10
1.8220000000000001
20
-3.9834999999999998
40
0.0784999606299213
0
CIRCLE
8
BLACK
10
2.0219999999999998
20
-3.9834999999999998
40
0.0344487795275591
0
CIRCLE
8
BLACK
10
1.472
20
-3.8534999999999999
40
0.0078740157480315
0
CIRCLE
8
BLACK
10
1.472
20
-3.9135
40
0.0078740157480315
0
CIRCLE
8
BLACK
10
1.6719999999999999
20
-3.8834999999999997
40
0.0590551181102362
0
CIRCLE
8
BLACK
10
1.9219999999999999
20
-3.7835000000000001
40
0.0590551181102362
0
CIRCLE
8
BLACK
10
2.1219999999999999
20
-3.7534999999999998
40
0.0078740157480315
0
CIRCLE
8
BLACK
10
2.1219999999999999
20
-3.8134999999999999
40
0.0078740157480315
0
CIRCLE
8
BLACK
10
1.6890000000000001
20
-3.234
40
0.0344487795275591
0
CIRCLE
8
BLACK
10
1.889
20
-3.234
40
0.0784999606299213
0
CIRCLE
8
BLACK
10
2.089
20
-3.234
40
0.0344487795275591
0
CIRCLE
8
BLACK
10
1.5389999999999999
20
-3.1040000000000001
40
0.0078740157480315
0
CIRCLE
8
BLACK
10
1.5389999999999999
20
-3.1640000000000001
40
0.0078740157480315
0
CIRCLE
8
BLACK
10
1.7389999999999999
20
-3.1339999999999999
40
0.0590551181102362
0
CIRCLE
8
BLACK
10
1.9889999999999999
20
-3.0339999999999998
40
0.0590551181102362
0
CIRCLE
8
BLACK
10
2.1890000000000001
20
-3.004
40
0.0078740157480315
0
CIRCLE
8
BLACK
10
2.1890000000000001
20
-3.0640000000000001
40
0.0078740157480315
0
CIRCLE
8
BLACK
10
3.7098822834645668
20
-4.7970003543307085
40
0.0344487795275591
0
CIRCLE
8
BLACK
10
3.9055118110236218
20
-4.8385826771653546
40
0.0784999606299213
0
CIRCLE
8
BLACK
10
4.1011413385826767
20
-4.8801649999999999
40
0.0344487795275591
0
CIRCLE
8
BLACK
10
3.5901886614173226
20
-4.6386544094488187
40
0.0078740157480315
0
CIRCLE
8
BLACK
10
3.5777139763779529
20
-4.6973432677165352
40
0.0078740157480315
0
CIRCLE
8
BLACK
10
3.7795808267716535
20
-4.7095812204724412
40
0.0590551181102362
0
CIRCLE
8
BLACK
10
4.0449088976377956
20
-4.6637443307086617
40
0.0590551181102362
0
CIRCLE
8
BLACK
10
4.2467757874015746
20
-4.675982244094488
40
0.0078740157480315
0
CIRCLE
8
BLACK
10
4.2343010629921256
20
-4.7346711023622046
40
0.0078740157480315
0
CIRCLE
8
BLACK
10
9.9918704724409455
20
-3.2880823228346454
40
0.0344487795275591
0
CIRCLE
8
BLACK
10
10.1875
20
-3.2464999999999997
40
0.0784999606299213
0
CIRCLE
8
BLACK
10
10.3831295275590545
20
-3.2049176771653545
40
0.0344487795275591
0
CIRCLE
8
BLACK
10
9.8181197637795279
20
-3.1921099212598425
40
0.0078740157480315
0
CIRCLE
8
BLACK
10
9.8305945275590556
20
-3.2507987401574803
40
0.0078740157480315
0
CIRCLE
8
BLACK
10
10.0199866929133847
20
-3.1798720078740157
40
0.0590551181102362
0
CIRCLE
8
BLACK
10
10.243732440944882
20
-3.0300792913385828
40
0.0590551181102362
0
CIRCLE
8
BLACK
10
10.4331246062992129
20
-2.9591525590551182
40
0.0078740157480315
0
CIRCLE
8
BLACK
10
10.4455992913385831
20
-3.0178414173228347
40
0.0078740157480315
0
CIRCLE
8
BLACK
10
12.9133858267716537
20
-1.3385826771653544
40
0.0196850393700787
0
CIRCLE
8
BLACK
10
12.9133858267716537
20
-1.5354330708661417
40
0.0196850393700787
0
CIRCLE
8
BLACK
10
12.9133858267716537
20
-1.4370078740157479
40
0.0196850393700787
0
LINE
8
BLACK
6
CONTINUOUS
10
13.1830708661417315
20
-1.2460629921259843
11
13.234251968503937
21
-1.2460629921259843
0
ARC
8
BLACK
10
13.234251968503937
20
-1.2165354330708662
40
0.0295275590551181
50
-90.00000000
51
90.00000000
0
LINE
8
BLACK
6
CONTINUOUS
10
13.234251968503937
20
-1.1870078740157479
11
13.1830708661417315
21
-1.1870078740157479
0
ARC
8
BLACK
10
13.1830708661417315
20
-1.2165354330708662
40
0.0295275590551181
50
90.00000000
51
270.00000000
0
LINE
8
BLACK
6
CONTINUOUS
10
13.1830708661417315
20
-1.6870078740157479
11
13.234251968503937
21
-1.6870078740157479
0
ARC
8
BLACK
10
13.234251968503937
20
-1.6574803149606299
40
0.0295275590551181
50
-90.00000000
51
90.00000000
0
LINE
8
BLACK
6
CONTINUOUS
10
13.234251968503937
20
-1.6279527559055118
11
13.1830708661417315
21
-1.6279527559055118
0
ARC
8
BLACK
10
13.1830708661417315
20
-1.6574803149606299
40
0.0295275590551181
50
90.00000000
51
270.00000000
0
CIRCLE
8
BLACK
10
13.484251968503937
20
-1.5354330708661417
40
0.0196850393700787
0
CIRCLE
8
BLACK
10
13.484251968503937
20
-1.3385826771653544
40
0.0196850393700787
0
CIRCLE
8
BLACK
10
7.0354330708661417
20
-5.8700787401574805
40
0.0629920866141732
0
CIRCLE
8
BLACK
10
13.0370078740157478
20
-5.4921259842519685
40
0.0344487795275591
0
CIRCLE
8
BLACK
10
13.2370078740157471
20
-5.4921259842519685
40
0.0784999606299213
0
CIRCLE
8
BLACK
10
13.4370078740157481
20
-5.4921259842519685
40
0.0344487795275591
0
CIRCLE
8
BLACK
10
12.8870078740157474
20
-5.3621259842519686
40
0.0078740157480315
0
CIRCLE
8
BLACK
10
12.8870078740157474
20
-5.4221259842519682
40
0.0078740157480315
0
CIRCLE
8
BLACK
10
13.0870078740157485
20
-5.392125984251968
40
0.0590551181102362
0
CIRCLE
8
BLACK
10
13.3370078740157485
20
-5.2921259842519683
40
0.0590551181102362
0
CIRCLE
8
BLACK
10
13.5370078740157478
20
-5.2621259842519681
40
0.0078740157480315
0
CIRCLE
8
BLACK
10
13.5370078740157478
20
-5.3221259842519686
40
0.0078740157480315
0
CIRCLE
8
BLACK
10
2.4965551181102361
20
-5.4852362204724407
40
0.0344487795275591
0
CIRCLE
8
BLACK
10
2.6965551181102363
20
-5.4852362204724407
40
0.0784999606299213
0
CIRCLE
8
BLACK
10
2.896555118110236
20
-5.4852362204724407
40
0.0344487795275591
0
CIRCLE
8
BLACK
10
2.3465551181102362
20
-5.3552362204724409
40
0.0078740157480315
0
CIRCLE
8
BLACK
10
2.3465551181102362
20
-5.4152362204724405
40
0.0078740157480315
0
CIRCLE
8
BLACK
10
2.5465551181102364
20
-5.3852362204724411
40
0.0590551181102362
0
CIRCLE
8
BLACK
10
2.7965551181102359
20
-5.2852362204724406
40
0.0590551181102362
0
CIRCLE
8
BLACK
10
2.9965551181102361
20
-5.2552362204724412
40
0.0078740157480315
0
CIRCLE
8
BLACK
10
2.9965551181102361
20
-5.3152362204724408
40
0.0078740157480315
0
CIRCLE
8
BLACK
10
6.7204724409448815
20
-4.3661417322834648
40
0.0629920866141732
0
LINE
8
BLACK
6
CONTINUOUS
10
5.8787401574803146
20
-1.2842519685039371
11
5.8787401574803146
21
-1.2409448818897637
0
ARC
8
BLACK
10
5.8669291338582674
20
-1.2409448818897637
40
0.0118110236220472
50
0.00000000
51
180.00000000
0
LINE
8
BLACK
6
CONTINUOUS
10
5.8551181102362202
20
-1.2409448818897637
11
5.8551181102362202
21
-1.2842519685039371
0
ARC
8
BLACK
10
5.8669291338582674
20
-1.2842519685039371
40
0.0118110236220472
50
180.00000000
51
360.00000000
0
LINE
8
BLACK
6
CONTINUOUS
10
5.8787401574803146
20
-1.1098425196850394
11
5.8787401574803146
21
-1.0862204724409448
0
ARC
8
BLACK
10
5.8669291338582674
20
-1.0862204724409448
40
0.0118110236220472
50
0.00000000
51
180.00000000
0
LINE
8
BLACK
6
CONTINUOUS
10
5.8551181102362202
20
-1.0862204724409448
11
5.8551181102362202
21
-1.1098425196850394
0
ARC
8
BLACK
10
5.8669291338582674
20
-1.1098425196850394
40
0.0118110236220472
50
180.00000000
51
360.00000000
0
CIRCLE
8
BLACK
10
5.8106299212598422
20
-1.241732283464567
40
0.0127952362204724
0
CIRCLE
8
BLACK
10
5.5830708661417319
20
-1.241732283464567
40
0.0127952362204724
0
LINE
8
BLACK
6
CONTINUOUS
10
5.5385826771653539
20
-1.2842519685039371
11
5.5385826771653539
21
-1.2409448818897637
0
ARC
8
BLACK
10
5.5267716535433067
20
-1.2409448818897637
40
0.0118110236220472
50
0.00000000
51
180.00000000
0
LINE
8
BLACK
6
CONTINUOUS
10
5.5149606299212595
20
-1.2409448818897637
11
5.5149606299212595
21
-1.2842519685039371
0
ARC
8
BLACK
10
5.5267716535433067
20
-1.2842519685039371
40
0.0118110236220472
50
180.00000000
51
360.00000000
0
LINE
8
BLACK
6
CONTINUOUS
10
5.5385826771653539
20
-1.1098425196850394
11
5.5385826771653539
21
-1.0862204724409448
0
ARC
8
BLACK
10
5.5267716535433067
20
-1.0862204724409448
40
0.0118110236220472
50
0.00000000
51
180.00000000
0
LINE
8
BLACK
6
CONTINUOUS
10
5.5149606299212595
20
-1.0862204724409448
11
5.5149606299212595
21
-1.1098425196850394
0
ARC
8
BLACK
10
5.5267716535433067
20
-1.1098425196850394
40
0.0118110236220472
50
180.00000000
51
360.00000000
0
CIRCLE
8
BLACK
10
2.1389763779527557
20
-4.7338582677165357
40
0.0344487795275591
0
CIRCLE
8
BLACK
10
2.3389763779527559
20
-4.7338582677165357
40
0.0784999606299213
0
CIRCLE
8
BLACK
10
2.5389763779527557
20
-4.7338582677165357
40
0.0344487795275591
0
CIRCLE
8
BLACK
10
1.9889763779527558
20
-4.6038582677165349
40
0.0078740157480315
0
CIRCLE
8
BLACK
10
1.9889763779527558
20
-4.6638582677165354
40
0.0078740157480315
0
CIRCLE
8
BLACK
10
2.188976377952756
20
-4.6338582677165352
40
0.0590551181102362
0
CIRCLE
8
BLACK
10
2.438976377952756
20
-4.5338582677165356
40
0.0590551181102362
0
CIRCLE
8
BLACK
10
2.6389763779527557
20
-4.5038582677165353
40
0.0078740157480315
0
CIRCLE
8
BLACK
10
2.6389763779527557
20
-4.5638582677165349
40
0.0078740157480315
0
CIRCLE
8
BLACK
10
6.122047244094488
20
-1.0464566929133858
40
0.0196850393700787
0
CIRCLE
8
BLACK
10
6.122047244094488
20
-1.1464566929133857
40
0.0196850393700787
0
CIRCLE
8
BLACK
10
6.122047244094488
20
-1.2464566929133858
40
0.0196850393700787
0
CIRCLE
8
BLACK
10
6.122047244094488
20
-1.3464566929133859
40
0.0196850393700787
0
CIRCLE
8
BLACK
10
8.6653543307086611
20
-1.1023622047244095
40
0.0196850393700787
0
CIRCLE
8
BLACK
10
8.5653543307086615
20
-1.1023622047244095
40
0.0196850393700787
0
CIRCLE
8
BLACK
10
8.4653543307086618
20
-1.1023622047244095
40
0.0196850393700787
0
CIRCLE
8
BLACK
10
8.3653543307086604
20
-1.1023622047244095
40
0.0196850393700787
0
CIRCLE
8
BLACK
10
8.2653543307086608
20
-1.1023622047244095
40
0.0196850393700787
0
CIRCLE
8
BLACK
10
8.1653543307086611
20
-1.1023622047244095
40
0.0196850393700787
0
CIRCLE
8
BLACK
10
13.0370078740157478
20
-4.7362204724409445
40
0.0344487795275591
0
CIRCLE
8
BLACK
10
13.2370078740157471
20
-4.7362204724409445
40
0.0784999606299213
0
CIRCLE
8
BLACK
10
13.4370078740157481
20
-4.7362204724409445
40
0.0344487795275591
0
CIRCLE
8
BLACK
10
12.8870078740157474
20
-4.6062204724409446
40
0.0078740157480315
0
CIRCLE
8
BLACK
10
12.8870078740157474
20
-4.6662204724409451
40
0.0078740157480315
0
CIRCLE
8
BLACK
10
13.0870078740157485
20
-4.6362204724409448
40
0.0590551181102362
0
CIRCLE
8
BLACK
10
13.3370078740157485
20
-4.5362204724409452
40
0.0590551181102362
0
CIRCLE
8
BLACK
10
13.5370078740157478
20
-4.5062204724409449
40
0.0078740157480315
0
CIRCLE
8
BLACK
10
13.5370078740157478
20
-4.5662204724409445
40
0.0078740157480315
0
CIRCLE
8
BLACK
10
11.9149606299212589
20
-3.984251968503937
40
0.0344487795275591
0
CIRCLE
8
BLACK
10
12.11496062992126
20
-3.984251968503937
40
0.0784999606299213
0
CIRCLE
8
BLACK
10
12.3149606299212593
20
-3.984251968503937
40
0.0344487795275591
0
CIRCLE
8
BLACK
10
11.7649606299212603
20
-3.8542519685039367
40
0.0078740157480315
0
CIRCLE
8
BLACK
10
11.7649606299212603
20
-3.9142519685039368
40
0.0078740157480315
0
CIRCLE
8
BLACK
10
11.9649606299212596
20
-3.8842519685039369
40
0.0590551181102362
0
CIRCLE
8
BLACK
10
12.2149606299212596
20
-3.7842519685039369
40
0.0590551181102362
0
CIRCLE
8
BLACK
10
12.4149606299212589
20
-3.7542519685039371
40
0.0078740157480315
0
CIRCLE
8
BLACK
10
12.4149606299212589
20
-3.8142519685039371
40
0.0078740157480315
  0
ENDSEC
  0
EOF
